<?xml version="1.0" encoding="UTF-8" standalone="no"?>
<svg
   height="128px"
   viewBox="0 0 128 128"
   width="128px"
   version="1.1"
   id="svg2633"
   sodipodi:docname="io.github.fsobolev.Cavasik-Workspace.svg"
   inkscape:version="1.2.2 (b0a8486541, 2022-12-01)"
   xmlns:inkscape="http://www.inkscape.org/namespaces/inkscape"
   xmlns:sodipodi="http://sodipodi.sourceforge.net/DTD/sodipodi-0.dtd"
   xmlns:xlink="http://www.w3.org/1999/xlink"
   xmlns="http://www.w3.org/2000/svg"
   xmlns:svg="http://www.w3.org/2000/svg">
  <defs
     id="defs2637">
    <linearGradient
       inkscape:collect="always"
       id="linearGradient20537">
      <stop
         style="stop-color:#ffffff;stop-opacity:0.5001784;"
         offset="0"
         id="stop20533" />
      <stop
         style="stop-color:#ffffff;stop-opacity:1;"
         offset="0.49699441"
         id="stop20541" />
      <stop
         style="stop-color:#ffffff;stop-opacity:0.49821213;"
         offset="1"
         id="stop20535" />
    </linearGradient>
    <linearGradient
       inkscape:collect="always"
       id="linearGradient20160">
      <stop
         style="stop-color:#7015c3;stop-opacity:1;"
         offset="0"
         id="stop20156" />
      <stop
         style="stop-color:#8326d5;stop-opacity:0.62352941;"
         offset="0.5"
         id="stop20164" />
      <stop
         style="stop-color:#4dd3f5;stop-opacity:0.7740404;"
         offset="1"
         id="stop20158" />
    </linearGradient>
    <linearGradient
       inkscape:collect="always"
       xlink:href="#linearGradient20160"
       id="linearGradient20162"
       x1="87.796226"
       y1="29.440647"
       x2="125.57745"
       y2="29.440647"
       gradientUnits="userSpaceOnUse"
       gradientTransform="translate(-30.314705,-3.5109329)" />
    <linearGradient
       inkscape:collect="always"
       xlink:href="#linearGradient20537"
       id="linearGradient20539"
       x1="92.058594"
       y1="52.182617"
       x2="106.61719"
       y2="52.182617"
       gradientUnits="userSpaceOnUse"
       gradientTransform="rotate(7.9436208,280.02977,-69.429037)" />
    <linearGradient
       inkscape:collect="always"
       xlink:href="#linearGradient20160"
       id="linearGradient412"
       gradientUnits="userSpaceOnUse"
       gradientTransform="translate(-80.4071,45.327779)"
       x1="87.796226"
       y1="29.440647"
       x2="125.57745"
       y2="29.440647" />
    <linearGradient
       inkscape:collect="always"
       xlink:href="#linearGradient20537"
       id="linearGradient414"
       gradientUnits="userSpaceOnUse"
       gradientTransform="rotate(7.9436208,-253.10997,-393.02105)"
       x1="92.058594"
       y1="52.182617"
       x2="106.61719"
       y2="52.182617" />
  </defs>
  <sodipodi:namedview
     id="namedview2635"
     pagecolor="#505050"
     bordercolor="#ffffff"
     borderopacity="1"
     inkscape:showpageshadow="0"
     inkscape:pageopacity="0"
     inkscape:pagecheckerboard="1"
     inkscape:deskcolor="#505050"
     showgrid="false"
     inkscape:zoom="8"
     inkscape:cx="50.25"
     inkscape:cy="91.0625"
     inkscape:window-width="1920"
     inkscape:window-height="1018"
     inkscape:window-x="0"
     inkscape:window-y="0"
     inkscape:window-maximized="1"
     inkscape:current-layer="svg2633" />
  <linearGradient
     id="a"
     gradientUnits="userSpaceOnUse"
     x1="8.0000155"
     x2="120.0000155"
     y1="115.999977"
     y2="115.999977"
     gradientTransform="matrix(0.34470626,0,0,0.34559191,86.495492,2.0351292)">
    <stop
       offset="0"
       stop-color="#1a5fb4"
       id="stop2592" />
    <stop
       offset="0.0334554"
       stop-color="#3584e4"
       id="stop2594" />
    <stop
       offset="0.0713653"
       stop-color="#1a5fb4"
       id="stop2596" />
    <stop
       offset="0.928571"
       stop-color="#1a5fb4"
       id="stop2598" />
    <stop
       offset="0.964286"
       stop-color="#3584e4"
       id="stop2600" />
    <stop
       offset="1"
       stop-color="#1a5fb4"
       id="stop2602" />
  </linearGradient>
  <g
     id="g424"
     transform="translate(11.36216,19.094135)">
    <path
       d="m 62.277562,12.893115 h 32.555073 c 1.49819,0 2.71292,1.212221 2.71292,2.707341 v 20.305053 c 0,1.495126 -1.21473,2.707346 -2.71292,2.707346 H 62.277562 c -1.498202,0 -2.712924,-1.21222 -2.712924,-2.707346 V 15.600456 c 0,-1.49512 1.214722,-2.707341 2.712924,-2.707341 z m 0,0"
       fill="url(#a)"
       id="path2617"
       style="fill:#2e2838;fill-opacity:1;stroke-width:0.338765" />
    <rect
       style="fill:#1b082e;fill-opacity:1"
       id="rect2751"
       width="37.665634"
       height="26.140112"
       x="57.581535"
       y="10.543613"
       rx="3"
       ry="3" />
    <path
       id="rect2751-3"
       style="fill:url(#linearGradient20162);fill-opacity:1;stroke-width:1.00472"
       d="m 95.262745,15.03724 c -10.69988,-1.97e-4 -16.44932,0.02663 -22.23774,8.007929 -4.100792,5.653798 -8.764217,7.339866 -15.543484,7.823161 v 3.007396 c 0,1.447289 1.006051,2.648546 2.356797,2.946463 h 32.505377 c 0.32468,0 0.63749,-0.03766 0.93253,-0.108109 1.16007,-0.418548 1.98652,-1.526757 1.98652,-2.838354 z" />
    <path
       id="path20336"
       style="fill:url(#linearGradient20539);fill-opacity:1"
       d="m 89.426912,18.999651 a 3.1406314,3.1406314 0 0 0 -3.544514,2.676459 3.1406314,3.1406314 0 0 0 0.392358,1.993272 3.1406314,3.1406314 0 0 0 -1.588888,-0.710778 3.1406314,3.1406314 0 0 0 -3.544524,2.676459 3.1406314,3.1406314 0 0 0 0.329832,1.876084 3.1406314,3.1406314 0 0 0 -1.499732,-0.643119 3.1406314,3.1406314 0 0 0 -3.544514,2.67646 3.1406314,3.1406314 0 0 0 2.676454,3.544519 3.1406314,3.1406314 0 0 0 3.544524,-2.676459 3.1406314,3.1406314 0 0 0 -0.327901,-1.875815 3.1406314,3.1406314 0 0 0 1.497801,0.64285 3.1406314,3.1406314 0 0 0 3.544514,-2.67646 3.1406314,3.1406314 0 0 0 -0.392357,-1.993272 3.1406314,3.1406314 0 0 0 1.588887,0.710778 3.1406314,3.1406314 0 0 0 3.544525,-2.676459 3.1406314,3.1406314 0 0 0 -2.676465,-3.544519 z m -0.224842,1.611342 a 1.513724,1.513724 0 0 1 0.107791,0.01898 1.513724,1.513724 0 0 1 0.10477,0.02645 1.513724,1.513724 0 0 1 0.102028,0.03199 1.513724,1.513724 0 0 1 0.10068,0.04165 1.513724,1.513724 0 0 1 0.09573,0.04886 1.513724,1.513724 0 0 1 0.09298,0.05439 1.513724,1.513724 0 0 1 0.09001,0.06186 1.513724,1.513724 0 0 1 0.08336,0.06685 1.513724,1.513724 0 0 1 0.08067,0.07239 1.513724,1.513724 0 0 1 0.07375,0.07931 1.513724,1.513724 0 0 1 0.06709,0.0843 1.513724,1.513724 0 0 1 0.06269,0.08763 1.513724,1.513724 0 0 1 0.05614,0.09263 1.513724,1.513724 0 0 1 0.0476,0.09735 1.513724,1.513724 0 0 1 0.04337,0.09874 1.513724,1.513724 0 0 1 0.03295,0.103204 1.513724,1.513724 0 0 1 0.02882,0.104597 1.513724,1.513724 0 0 1 0.01884,0.105175 1.513724,1.513724 0 0 1 0.01246,0.10823 1.513724,1.513724 0 0 1 0.0047,0.107152 1.513724,1.513724 0 0 1 -0.0049,0.107773 1.513724,1.513724 0 0 1 -0.01115,0.108878 1.513724,1.513724 0 0 1 -0.0678,0.288319 1.513724,1.513724 0 0 1 -0.126195,0.268339 1.513724,1.513724 0 0 1 -0.173508,0.240042 1.513724,1.513724 0 0 1 -0.219483,0.202076 1.513724,1.513724 0 0 1 -0.25224,0.15412 1.513724,1.513724 0 0 1 -0.278642,0.103106 1.513724,1.513724 0 0 1 -0.29236,0.04598 1.513724,1.513724 0 0 1 -0.29808,-0.01201 1.513724,1.513724 0 0 1 -0.288041,-0.06978 1.513724,1.513724 0 0 1 -0.268606,-0.124253 1.513724,1.513724 0 0 1 -0.239774,-0.175445 1.513724,1.513724 0 0 1 -0.202347,-0.217552 1.513724,1.513724 0 0 1 -0.15385,-0.25417 1.513724,1.513724 0 0 1 -0.103112,-0.278641 1.513724,1.513724 0 0 1 -0.04594,-0.292358 1.513724,1.513724 0 0 1 0.01174,-0.296141 1.513724,1.513724 0 0 1 0.06978,-0.288042 1.513724,1.513724 0 0 1 0.124485,-0.27055 1.513724,1.513724 0 0 1 0.175449,-0.239772 1.513724,1.513724 0 0 1 0.217282,-0.200411 1.513724,1.513724 0 0 1 0.25444,-0.155784 1.513724,1.513724 0 0 1 0.278373,-0.101172 1.513724,1.513724 0 0 1 0.29236,-0.04598 1.513724,1.513724 0 0 1 0.296139,0.01174 z m -4.741045,3.958953 a 1.513724,1.513724 0 0 1 0.107782,0.01898 1.513724,1.513724 0 0 1 0.104769,0.02645 1.513724,1.513724 0 0 1 0.102029,0.03199 1.513724,1.513724 0 0 1 0.100679,0.04165 1.513724,1.513724 0 0 1 0.09573,0.04886 1.513724,1.513724 0 0 1 0.09297,0.05439 1.513724,1.513724 0 0 1 0.09001,0.06186 1.513724,1.513724 0 0 1 0.08336,0.06685 1.513724,1.513724 0 0 1 0.08057,0.07238 1.513724,1.513724 0 0 1 0.07375,0.07931 1.513724,1.513724 0 0 1 0.06709,0.0843 1.513724,1.513724 0 0 1 0.06269,0.08763 1.513724,1.513724 0 0 1 0.05614,0.09263 1.513724,1.513724 0 0 1 0.0475,0.09734 1.513724,1.513724 0 0 1 0.04337,0.09874 1.513724,1.513724 0 0 1 0.03295,0.103204 1.513724,1.513724 0 0 1 0.02882,0.104597 1.513724,1.513724 0 0 1 0.01885,0.105176 1.513724,1.513724 0 0 1 0.01246,0.108229 1.513724,1.513724 0 0 1 0.0047,0.107152 1.513724,1.513724 0 0 1 -0.0049,0.107773 1.513724,1.513724 0 0 1 -0.01115,0.108878 1.513724,1.513724 0 0 1 -0.06779,0.288319 1.513724,1.513724 0 0 1 -0.126195,0.268338 1.513724,1.513724 0 0 1 -0.173509,0.240044 1.513724,1.513724 0 0 1 -0.219482,0.202075 1.513724,1.513724 0 0 1 -0.25224,0.15412 1.513724,1.513724 0 0 1 -0.278633,0.103108 1.513724,1.513724 0 0 1 -0.292369,0.04598 1.513724,1.513724 0 0 1 -0.298071,-0.01201 1.513724,1.513724 0 0 1 -0.288041,-0.06978 1.513724,1.513724 0 0 1 -0.268615,-0.124254 1.513724,1.513724 0 0 1 -0.239775,-0.175445 1.513724,1.513724 0 0 1 -0.202346,-0.217552 1.513724,1.513724 0 0 1 -0.15385,-0.254169 1.513724,1.513724 0 0 1 -0.103102,-0.278642 1.513724,1.513724 0 0 1 -0.04406,-0.292094 1.513724,1.513724 0 0 1 0.01174,-0.296141 1.513724,1.513724 0 0 1 0.06978,-0.288043 1.513724,1.513724 0 0 1 0.122602,-0.270811 1.513724,1.513724 0 0 1 0.17544,-0.239773 1.513724,1.513724 0 0 1 0.217281,-0.200411 1.513724,1.513724 0 0 1 0.254441,-0.155785 1.513724,1.513724 0 0 1 0.278373,-0.101172 1.513724,1.513724 0 0 1 0.292369,-0.04598 1.513724,1.513724 0 0 1 0.29614,0.01174 z m -4.714424,3.909424 a 1.513724,1.513724 0 0 1 0.107792,0.01898 1.513724,1.513724 0 0 1 0.104769,0.02645 1.513724,1.513724 0 0 1 0.102029,0.03199 1.513724,1.513724 0 0 1 0.100679,0.04165 1.513724,1.513724 0 0 1 0.09573,0.04886 1.513724,1.513724 0 0 1 0.09297,0.05439 1.513724,1.513724 0 0 1 0.09001,0.06186 1.513724,1.513724 0 0 1 0.08336,0.06685 1.513724,1.513724 0 0 1 0.08057,0.07238 1.513724,1.513724 0 0 1 0.07375,0.07931 1.513724,1.513724 0 0 1 0.06709,0.0843 1.513724,1.513724 0 0 1 0.06269,0.08763 1.513724,1.513724 0 0 1 0.05614,0.09263 1.513724,1.513724 0 0 1 0.0475,0.09734 1.513724,1.513724 0 0 1 0.04337,0.09874 1.513724,1.513724 0 0 1 0.03295,0.103205 1.513724,1.513724 0 0 1 0.02882,0.104596 1.513724,1.513724 0 0 1 0.01885,0.105177 1.513724,1.513724 0 0 1 0.01246,0.108229 1.513724,1.513724 0 0 1 0.0047,0.107152 1.513724,1.513724 0 0 1 -0.0049,0.107773 1.513724,1.513724 0 0 1 -0.01115,0.108878 1.513724,1.513724 0 0 1 -0.0678,0.288319 1.513724,1.513724 0 0 1 -0.126194,0.268338 1.513724,1.513724 0 0 1 -0.173509,0.240044 1.513724,1.513724 0 0 1 -0.219492,0.202073 1.513724,1.513724 0 0 1 -0.25223,0.154121 1.513724,1.513724 0 0 1 -0.278643,0.103107 1.513724,1.513724 0 0 1 -0.292359,0.04598 1.513724,1.513724 0 0 1 -0.298081,-0.01201 1.513724,1.513724 0 0 1 -0.288041,-0.06978 1.513724,1.513724 0 0 1 -0.268605,-0.124253 1.513724,1.513724 0 0 1 -0.239775,-0.175445 1.513724,1.513724 0 0 1 -0.202346,-0.217551 1.513724,1.513724 0 0 1 -0.153851,-0.254169 1.513724,1.513724 0 0 1 -0.103111,-0.278643 1.513724,1.513724 0 0 1 -0.04594,-0.292356 1.513724,1.513724 0 0 1 0.01174,-0.296142 1.513724,1.513724 0 0 1 0.06978,-0.288043 1.513724,1.513724 0 0 1 0.124484,-0.270548 1.513724,1.513724 0 0 1 0.17545,-0.239773 1.513724,1.513724 0 0 1 0.217281,-0.200411 1.513724,1.513724 0 0 1 0.254441,-0.155785 1.513724,1.513724 0 0 1 0.278373,-0.101172 1.513724,1.513724 0 0 1 0.292359,-0.04598 1.513724,1.513724 0 0 1 0.296139,0.01174 z" />
  </g>
  <path
     d="m 10.004868,35.073357 h 32.555074 c 1.49819,0 2.71292,1.212221 2.71292,2.707341 v 20.305053 c 0,1.495126 -1.21473,2.707346 -2.71292,2.707346 H 10.004868 c -1.4982013,0 -2.7129233,-1.21222 -2.7129233,-2.707346 V 37.780698 c 0,-1.49512 1.214722,-2.707341 2.7129233,-2.707341 z m 0,0"
     fill="url(#a)"
     id="path2617-6"
     style="fill:#2e2838;fill-opacity:1;stroke-width:0.338765" />
  <rect
     style="fill:#1b082e;fill-opacity:1"
     id="rect2751-2"
     width="37.665634"
     height="26.140112"
     x="6.9176221"
     y="6.4196444"
     rx="3"
     ry="3" />
  <path
     id="rect2751-3-9"
     style="fill:url(#linearGradient412);fill-opacity:1;stroke-width:1.00472"
     d="m 45.17035,63.875952 c -10.69988,-1.97e-4 -16.44932,0.02663 -22.23774,8.007929 -4.100792,5.653798 -8.764217,7.339866 -15.5434843,7.823161 v 3.007396 c 0,1.447289 1.006051,2.648546 2.356797,2.946463 H 42.2513 c 0.32468,0 0.63749,-0.03766 0.93253,-0.108109 1.16007,-0.418548 1.98652,-1.526757 1.98652,-2.838354 z" />
  <path
     id="path20336-1"
     style="fill:url(#linearGradient414);fill-opacity:1"
     d="m 39.591222,89.573806 a 3.1406314,3.1406314 0 0 0 -3.544514,2.676459 3.1406314,3.1406314 0 0 0 0.392358,1.993272 3.1406314,3.1406314 0 0 0 -1.588888,-0.710778 3.1406314,3.1406314 0 0 0 -3.544524,2.676459 3.1406314,3.1406314 0 0 0 0.329832,1.876084 3.1406314,3.1406314 0 0 0 -1.499732,-0.643119 3.1406314,3.1406314 0 0 0 -3.544514,2.676457 3.1406314,3.1406314 0 0 0 2.676454,3.54452 3.1406314,3.1406314 0 0 0 3.544524,-2.67646 3.1406314,3.1406314 0 0 0 -0.327901,-1.875812 3.1406314,3.1406314 0 0 0 1.497801,0.64285 3.1406314,3.1406314 0 0 0 3.544514,-2.67646 3.1406314,3.1406314 0 0 0 -0.392357,-1.993272 3.1406314,3.1406314 0 0 0 1.588887,0.710778 3.1406314,3.1406314 0 0 0 3.544525,-2.676459 3.1406314,3.1406314 0 0 0 -2.676465,-3.544519 z m -0.224842,1.611342 a 1.513724,1.513724 0 0 1 0.107791,0.01898 1.513724,1.513724 0 0 1 0.10477,0.02645 1.513724,1.513724 0 0 1 0.102028,0.03199 1.513724,1.513724 0 0 1 0.10068,0.04165 1.513724,1.513724 0 0 1 0.09573,0.04886 1.513724,1.513724 0 0 1 0.09298,0.05439 1.513724,1.513724 0 0 1 0.09001,0.06186 1.513724,1.513724 0 0 1 0.08336,0.06685 1.513724,1.513724 0 0 1 0.08067,0.07239 1.513724,1.513724 0 0 1 0.07375,0.07931 1.513724,1.513724 0 0 1 0.06709,0.0843 1.513724,1.513724 0 0 1 0.06269,0.08763 1.513724,1.513724 0 0 1 0.05614,0.09263 1.513724,1.513724 0 0 1 0.0476,0.09735 1.513724,1.513724 0 0 1 0.04337,0.09874 1.513724,1.513724 0 0 1 0.03295,0.103204 1.513724,1.513724 0 0 1 0.02882,0.104597 1.513724,1.513724 0 0 1 0.01884,0.105175 1.513724,1.513724 0 0 1 0.01246,0.10823 1.513724,1.513724 0 0 1 0.0047,0.107152 1.513724,1.513724 0 0 1 -0.0049,0.107773 1.513724,1.513724 0 0 1 -0.01115,0.108878 1.513724,1.513724 0 0 1 -0.0678,0.288319 1.513724,1.513724 0 0 1 -0.126195,0.268339 1.513724,1.513724 0 0 1 -0.173508,0.240042 1.513724,1.513724 0 0 1 -0.219483,0.202076 1.513724,1.513724 0 0 1 -0.25224,0.15412 1.513724,1.513724 0 0 1 -0.278642,0.103106 1.513724,1.513724 0 0 1 -0.29236,0.04598 1.513724,1.513724 0 0 1 -0.29808,-0.01201 1.513724,1.513724 0 0 1 -0.288041,-0.06978 1.513724,1.513724 0 0 1 -0.268606,-0.124253 1.513724,1.513724 0 0 1 -0.239774,-0.175445 1.513724,1.513724 0 0 1 -0.202347,-0.217552 1.513724,1.513724 0 0 1 -0.15385,-0.25417 1.513724,1.513724 0 0 1 -0.103112,-0.278641 1.513724,1.513724 0 0 1 -0.04594,-0.292358 1.513724,1.513724 0 0 1 0.01174,-0.296141 1.513724,1.513724 0 0 1 0.06978,-0.288042 1.513724,1.513724 0 0 1 0.124485,-0.27055 1.513724,1.513724 0 0 1 0.175449,-0.239772 1.513724,1.513724 0 0 1 0.217282,-0.200411 1.513724,1.513724 0 0 1 0.25444,-0.155784 1.513724,1.513724 0 0 1 0.278373,-0.101172 1.513724,1.513724 0 0 1 0.29236,-0.04598 1.513724,1.513724 0 0 1 0.296139,0.01174 z m -4.741045,3.958953 a 1.513724,1.513724 0 0 1 0.107782,0.01898 1.513724,1.513724 0 0 1 0.104769,0.02645 1.513724,1.513724 0 0 1 0.102029,0.03199 1.513724,1.513724 0 0 1 0.100679,0.04165 1.513724,1.513724 0 0 1 0.09573,0.04886 1.513724,1.513724 0 0 1 0.09297,0.05439 1.513724,1.513724 0 0 1 0.09001,0.06186 1.513724,1.513724 0 0 1 0.08336,0.06685 1.513724,1.513724 0 0 1 0.08057,0.07238 1.513724,1.513724 0 0 1 0.07375,0.07931 1.513724,1.513724 0 0 1 0.06709,0.0843 1.513724,1.513724 0 0 1 0.06269,0.08763 1.513724,1.513724 0 0 1 0.05614,0.09263 1.513724,1.513724 0 0 1 0.0475,0.09734 1.513724,1.513724 0 0 1 0.04337,0.09874 1.513724,1.513724 0 0 1 0.03295,0.103204 1.513724,1.513724 0 0 1 0.02882,0.104597 1.513724,1.513724 0 0 1 0.01885,0.105176 1.513724,1.513724 0 0 1 0.01246,0.108229 1.513724,1.513724 0 0 1 0.0047,0.107152 1.513724,1.513724 0 0 1 -0.0049,0.107773 1.513724,1.513724 0 0 1 -0.01115,0.108878 1.513724,1.513724 0 0 1 -0.06779,0.288319 1.513724,1.513724 0 0 1 -0.126195,0.268338 1.513724,1.513724 0 0 1 -0.173509,0.240044 1.513724,1.513724 0 0 1 -0.219482,0.202075 1.513724,1.513724 0 0 1 -0.25224,0.15412 1.513724,1.513724 0 0 1 -0.278633,0.103108 1.513724,1.513724 0 0 1 -0.292369,0.04598 1.513724,1.513724 0 0 1 -0.298071,-0.01201 1.513724,1.513724 0 0 1 -0.288041,-0.06978 1.513724,1.513724 0 0 1 -0.268615,-0.124254 1.513724,1.513724 0 0 1 -0.239775,-0.175445 1.513724,1.513724 0 0 1 -0.202346,-0.217552 1.513724,1.513724 0 0 1 -0.15385,-0.254169 1.513724,1.513724 0 0 1 -0.103102,-0.278642 1.513724,1.513724 0 0 1 -0.04406,-0.292094 1.513724,1.513724 0 0 1 0.01174,-0.296141 1.513724,1.513724 0 0 1 0.06978,-0.288043 1.513724,1.513724 0 0 1 0.122602,-0.270811 1.513724,1.513724 0 0 1 0.17544,-0.239773 1.513724,1.513724 0 0 1 0.217281,-0.200411 1.513724,1.513724 0 0 1 0.254441,-0.155785 1.513724,1.513724 0 0 1 0.278373,-0.101172 1.513724,1.513724 0 0 1 0.292369,-0.04598 1.513724,1.513724 0 0 1 0.29614,0.01174 z m -4.714424,3.909424 a 1.513724,1.513724 0 0 1 0.107792,0.01898 1.513724,1.513724 0 0 1 0.104769,0.02645 1.513724,1.513724 0 0 1 0.102029,0.03199 1.513724,1.513724 0 0 1 0.100679,0.04165 1.513724,1.513724 0 0 1 0.09573,0.04886 1.513724,1.513724 0 0 1 0.09297,0.05439 1.513724,1.513724 0 0 1 0.09001,0.06186 1.513724,1.513724 0 0 1 0.08336,0.06685 1.513724,1.513724 0 0 1 0.08057,0.07238 1.513724,1.513724 0 0 1 0.07375,0.07931 1.513724,1.513724 0 0 1 0.06709,0.0843 1.513724,1.513724 0 0 1 0.06269,0.08763 1.513724,1.513724 0 0 1 0.05614,0.09263 1.513724,1.513724 0 0 1 0.0475,0.09734 1.513724,1.513724 0 0 1 0.04337,0.09875 1.513724,1.513724 0 0 1 0.03295,0.1032 1.513724,1.513724 0 0 1 0.02882,0.1046 1.513724,1.513724 0 0 1 0.01885,0.10517 1.513724,1.513724 0 0 1 0.01246,0.10823 1.513724,1.513724 0 0 1 0.0047,0.10715 1.513724,1.513724 0 0 1 -0.0049,0.10778 1.513724,1.513724 0 0 1 -0.01115,0.10888 1.513724,1.513724 0 0 1 -0.0678,0.28831 1.513724,1.513724 0 0 1 -0.126194,0.26834 1.513724,1.513724 0 0 1 -0.173509,0.24005 1.513724,1.513724 0 0 1 -0.219492,0.20207 1.513724,1.513724 0 0 1 -0.25223,0.15412 1.513724,1.513724 0 0 1 -0.278643,0.10311 1.513724,1.513724 0 0 1 -0.292359,0.046 1.513724,1.513724 0 0 1 -0.298081,-0.012 1.513724,1.513724 0 0 1 -0.288041,-0.0698 1.513724,1.513724 0 0 1 -0.268605,-0.12426 1.513724,1.513724 0 0 1 -0.239775,-0.17544 1.513724,1.513724 0 0 1 -0.202346,-0.21755 1.513724,1.513724 0 0 1 -0.153851,-0.25417 1.513724,1.513724 0 0 1 -0.103111,-0.27864 1.513724,1.513724 0 0 1 -0.04594,-0.29236 1.513724,1.513724 0 0 1 0.01174,-0.29614 1.513724,1.513724 0 0 1 0.06978,-0.28804 1.513724,1.513724 0 0 1 0.124484,-0.270553 1.513724,1.513724 0 0 1 0.17545,-0.239773 1.513724,1.513724 0 0 1 0.217281,-0.200411 1.513724,1.513724 0 0 1 0.254441,-0.155785 1.513724,1.513724 0 0 1 0.278373,-0.101172 1.513724,1.513724 0 0 1 0.292359,-0.04598 1.513724,1.513724 0 0 1 0.296139,0.01174 z" />
</svg>
