<?xml version="1.0" encoding="UTF-8" standalone="no"?>
<svg
   height="25"
   viewBox="0 0 74.999992 25"
   width="74.999992"
   version="1.1"
   id="svg2633"
   xmlns:xlink="http://www.w3.org/1999/xlink"
   xmlns="http://www.w3.org/2000/svg"
   xmlns:svg="http://www.w3.org/2000/svg">
  <defs
     id="defs2637">
    <linearGradient
       id="linearGradient23">
      <stop
         style="stop-color:#ffffff;stop-opacity:0.30000001;"
         offset="0"
         id="stop21" />
      <stop
         style="stop-color:#ffffff;stop-opacity:0.60000002;"
         offset="0.49699441"
         id="stop22" />
      <stop
         style="stop-color:#ffffff;stop-opacity:0.30000001;"
         offset="1"
         id="stop23" />
    </linearGradient>
    <linearGradient
       id="linearGradient20">
      <stop
         style="stop-color:#000000;stop-opacity:0.30000001;"
         offset="0"
         id="stop18" />
      <stop
         style="stop-color:#000000;stop-opacity:0.60000002;"
         offset="0.49699441"
         id="stop19" />
      <stop
         style="stop-color:#000000;stop-opacity:0.30000001;"
         offset="1"
         id="stop20" />
    </linearGradient>
    <linearGradient
       id="linearGradient14">
      <stop
         style="stop-color:#7015c3;stop-opacity:1;"
         offset="0"
         id="stop14" />
      <stop
         style="stop-color:#8326d5;stop-opacity:0.62352943;"
         offset="0.5"
         id="stop16" />
      <stop
         style="stop-color:#4dd3f5;stop-opacity:1;"
         offset="1"
         id="stop15" />
    </linearGradient>
    <linearGradient
       id="linearGradient11">
      <stop
         style="stop-color:#000000;stop-opacity:0.50017846;"
         offset="0"
         id="stop9" />
      <stop
         style="stop-color:#000000;stop-opacity:1;"
         offset="0.49699441"
         id="stop10" />
      <stop
         style="stop-color:#000000;stop-opacity:0.49821216;"
         offset="1"
         id="stop11" />
    </linearGradient>
    <linearGradient
       id="linearGradient4">
      <stop
         style="stop-color:#7015c3;stop-opacity:1;"
         offset="0"
         id="stop4" />
      <stop
         style="stop-color:#8326d5;stop-opacity:0.62352943;"
         offset="0.5"
         id="stop6" />
      <stop
         style="stop-color:#4dd3f5;stop-opacity:1;"
         offset="1"
         id="stop5" />
    </linearGradient>
    <linearGradient
       id="linearGradient20537">
      <stop
         style="stop-color:#ffffff;stop-opacity:0.5001784;"
         offset="0"
         id="stop20533" />
      <stop
         style="stop-color:#ffffff;stop-opacity:1;"
         offset="0.49699441"
         id="stop20541" />
      <stop
         style="stop-color:#ffffff;stop-opacity:0.49821213;"
         offset="1"
         id="stop20535" />
    </linearGradient>
    <linearGradient
       id="linearGradient20160">
      <stop
         style="stop-color:#7015c3;stop-opacity:1;"
         offset="0"
         id="stop20156" />
      <stop
         style="stop-color:#8326d5;stop-opacity:0.62352941;"
         offset="0.5"
         id="stop20164" />
      <stop
         style="stop-color:#4dd3f5;stop-opacity:0.7740404;"
         offset="1"
         id="stop20158" />
    </linearGradient>
    <linearGradient
       xlink:href="#linearGradient4"
       id="linearGradient1"
       gradientUnits="userSpaceOnUse"
       gradientTransform="matrix(0.51459355,0,0,0.51604548,37.102879,-9.851663)"
       x1="25.305641"
       y1="62.125225"
       x2="56.719852"
       y2="62.125225" />
    <linearGradient
       xlink:href="#linearGradient20160"
       id="linearGradient2"
       gradientUnits="userSpaceOnUse"
       gradientTransform="matrix(0.40861336,0,0,0.4340483,14.613013,12.396768)"
       x1="87.796227"
       y1="29.440647"
       x2="125.57745"
       y2="29.440647" />
    <linearGradient
       xlink:href="#linearGradient11"
       id="linearGradient10"
       gradientUnits="userSpaceOnUse"
       gradientTransform="matrix(0.51318301,0.05162695,-0.05822068,0.50183275,12.389539,-6.270851)"
       x1="92.058594"
       y1="52.182617"
       x2="106.61719"
       y2="52.182617" />
    <linearGradient
       xlink:href="#linearGradient20537"
       id="linearGradient13"
       gradientUnits="userSpaceOnUse"
       gradientTransform="matrix(0.51318301,0.05162695,-0.05822068,0.50183275,8.272763,-11.481146)"
       x1="92.058594"
       y1="52.182617"
       x2="106.61719"
       y2="52.182617" />
    <linearGradient
       xlink:href="#linearGradient14"
       id="linearGradient15"
       x1="74.449989"
       y1="22.221094"
       x2="115.68201"
       y2="22.221094"
       gradientUnits="userSpaceOnUse" />
    <linearGradient
       xlink:href="#linearGradient23"
       id="linearGradient16"
       gradientUnits="userSpaceOnUse"
       gradientTransform="matrix(-0.2160009,0.37846266,-0.3674369,-0.21719549,128.60925,-2.6546065)"
       x1="92.058594"
       y1="52.182617"
       x2="106.61719"
       y2="52.182617" />
    <linearGradient
       xlink:href="#linearGradient20"
       id="linearGradient18"
       gradientUnits="userSpaceOnUse"
       gradientTransform="matrix(-0.39177968,0.19078538,-0.1810057,-0.38654972,138.35531,24.893938)"
       x1="92.058594"
       y1="52.182617"
       x2="106.61719"
       y2="52.182617" />
  </defs>
  <linearGradient
     id="a"
     gradientUnits="userSpaceOnUse"
     x1="8.0000153"
     x2="120.00002"
     y1="115.99998"
     y2="115.99998"
     gradientTransform="matrix(0.34470626,0,0,0.34559191,86.495492,2.0351292)">
    <stop
       offset="0"
       stop-color="#1a5fb4"
       id="stop2592" />
    <stop
       offset="0.0334554"
       stop-color="#3584e4"
       id="stop2594" />
    <stop
       offset="0.0713653"
       stop-color="#1a5fb4"
       id="stop2596" />
    <stop
       offset="0.928571"
       stop-color="#1a5fb4"
       id="stop2598" />
    <stop
       offset="0.964286"
       stop-color="#3584e4"
       id="stop2600" />
    <stop
       offset="1"
       stop-color="#1a5fb4"
       id="stop2602" />
  </linearGradient>
  <rect
     style="fill:#2b3845;fill-opacity:1;stroke:#ffffff;stroke-width:0.124585;paint-order:markers stroke fill"
     id="rect1"
     width="74.875412"
     height="24.875416"
     x="0.062293775"
     y="0.062292099"
     rx="1.9830067"
     ry="1.9764075" />
  <g
     id="g13"
     transform="translate(-44.011316,-9.7077761)">
    <rect
       style="fill:url(#linearGradient1);stroke-width:0.515317;stroke-dasharray:none"
       id="rect2751-2-5-2-9"
       width="16.165552"
       height="16.165552"
       x="50.125"
       y="14.125"
       rx="2.0583742"
       ry="2.064182" />
    <rect
       style="fill:#1b082e;fill-opacity:1;stroke-width:0.514597;stroke-dasharray:none;paint-order:markers fill stroke"
       id="rect2751-2-3"
       width="15.437911"
       height="15.437911"
       x="50.48827"
       y="14.463207"
       rx="30.875822"
       ry="30.875822" />
    <path
       id="rect2751-3-9-0-9-6"
       style="fill:url(#linearGradient2);fill-opacity:1;stroke-width:0.514597;stroke-dasharray:none"
       d="m 65.733097,20.447576 c -4.249022,9.78e-4 -6.563618,0.06246 -8.893889,3.47554 -1.29822,1.901283 -2.734863,2.769053 -4.604235,3.160952 1.413382,1.72325 3.561399,2.819229 5.974149,2.819229 4.216542,0 7.622572,-3.346991 7.716949,-7.540053 v -0.357806 c -0.01204,-0.534812 -0.07838,-1.055764 -0.192974,-1.557862 z" />
    <path
       id="path20336-1-6-06"
       style="fill:url(#linearGradient10);fill-opacity:1;stroke-width:0.514597;stroke-dasharray:none"
       d="m 62.901584,21.398964 a 1.5825892,1.6238147 78.011505 0 0 -1.79456,1.413927 1.5825892,1.6238147 78.011505 0 0 0.228986,0.997771 1.5825892,1.6238147 78.011505 0 0 -0.829773,-0.329389 1.5825892,1.6238147 78.011505 0 0 -1.794569,1.413928 1.5825892,1.6238147 78.011505 0 0 0.195166,0.93982 1.5825892,1.6238147 78.011505 0 0 -0.782847,-0.296904 1.5825892,1.6238147 78.011505 0 0 -1.794559,1.413928 1.5825892,1.6238147 78.011505 0 0 1.428861,1.738209 1.5825892,1.6238147 78.011505 0 0 1.79457,-1.413927 1.5825892,1.6238147 78.011505 0 0 -0.194168,-0.93972 1.5825892,1.6238147 78.011505 0 0 0.781843,0.296804 1.5825892,1.6238147 78.011505 0 0 1.794564,-1.413928 1.5825892,1.6238147 78.011505 0 0 -0.22899,-0.997772 1.5825892,1.6238147 78.011505 0 0 0.829772,0.329391 1.5825892,1.6238147 78.011505 0 0 1.79457,-1.413928 1.5825892,1.6238147 78.011505 0 0 -1.428866,-1.73821 z m -0.09472,0.816463 a 0.76277757,0.7826475 78.011504 0 1 0.0559,0.0076 0.76277757,0.7826475 78.011504 0 1 0.05445,0.0114 0.76277757,0.7826475 78.011504 0 1 0.0531,0.01427 0.76277757,0.7826475 78.011504 0 1 0.05253,0.01914 0.76277757,0.7826475 78.011504 0 1 0.05007,0.02291 0.76277757,0.7826475 78.011504 0 1 0.04873,0.02573 0.76277757,0.7826475 78.011504 0 1 0.04729,0.02957 0.76277757,0.7826475 78.011504 0 1 0.04395,0.03221 0.76277757,0.7826475 78.011504 0 1 0.04261,0.03503 0.76277757,0.7826475 78.011504 0 1 0.03911,0.03864 0.76277757,0.7826475 78.011504 0 1 0.03576,0.04128 0.76277757,0.7826475 78.011504 0 1 0.03355,0.04302 0.76277757,0.7826475 78.011504 0 1 0.03021,0.04566 0.76277757,0.7826475 78.011504 0 1 0.02588,0.04819 0.76277757,0.7826475 78.011504 0 1 0.02372,0.04896 0.76277757,0.7826475 78.011504 0 1 0.01837,0.05142 0.76277757,0.7826475 78.011504 0 1 0.01626,0.05221 0.76277757,0.7826475 78.011504 0 1 0.01112,0.05268 0.76277757,0.7826475 78.011504 0 1 0.0079,0.05433 0.76277757,0.7826475 78.011504 0 1 0.0041,0.05393 0.76277757,0.7826475 78.011504 0 1 -0.001,0.05443 0.76277757,0.7826475 78.011504 0 1 -0.0041,0.0551 0.76277757,0.7826475 78.011504 0 1 -0.03119,0.146587 0.76277757,0.7826475 78.011504 0 1 -0.0616,0.137584 0.76277757,0.7826475 78.011504 0 1 -0.0864,0.124183 0.76277757,0.7826475 78.011504 0 1 -0.110643,0.105874 0.76277757,0.7826475 78.011504 0 1 -0.128186,0.0823 0.76277757,0.7826475 78.011504 0 1 -0.142497,0.05706 0.76277757,0.7826475 78.011504 0 1 -0.15034,0.02851 0.76277757,0.7826475 78.011504 0 1 -0.15406,-6.18e-4 0.76277757,0.7826475 78.011504 0 1 -0.14964,-0.02994 0.76277757,0.7826475 78.011504 0 1 -0.14033,-0.05775 0.76277757,0.7826475 78.011504 0 1 -0.126123,-0.08408 0.76277757,0.7826475 78.011504 0 1 -0.107355,-0.105991 0.76277757,0.7826475 78.011504 0 1 -0.0828,-0.125337 0.76277757,0.7826475 78.011504 0 1 -0.05693,-0.138598 0.76277757,0.7826475 78.011504 0 1 -0.02758,-0.14656 0.76277757,0.7826475 78.011504 0 1 0.0021,-0.149514 0.76277757,0.7826475 78.011504 0 1 0.03221,-0.146488 0.76277757,0.7826475 78.011504 0 1 0.06069,-0.138667 0.76277757,0.7826475 78.011504 0 1 0.08741,-0.124082 0.76277757,0.7826475 78.011504 0 1 0.109526,-0.104996 0.76277757,0.7826475 78.011504 0 1 0.129303,-0.08318 0.76277757,0.7826475 78.011504 0 1 0.142374,-0.0561 0.76277757,0.7826475 78.011504 0 1 0.150339,-0.02851 0.76277757,0.7826475 78.011504 0 1 0.153052,5.02e-4 z m -2.395331,2.082299 a 0.76277757,0.7826475 78.011504 0 1 0.0559,0.0076 0.76277757,0.7826475 78.011504 0 1 0.05445,0.0114 0.76277757,0.7826475 78.011504 0 1 0.0531,0.01427 0.76277757,0.7826475 78.011504 0 1 0.05253,0.01914 0.76277757,0.7826475 78.011504 0 1 0.05007,0.02291 0.76277757,0.7826475 78.011504 0 1 0.04873,0.02573 0.76277757,0.7826475 78.011504 0 1 0.04729,0.02957 0.76277757,0.7826475 78.011504 0 1 0.04395,0.03221 0.76277757,0.7826475 78.011504 0 1 0.04256,0.03503 0.76277757,0.7826475 78.011504 0 1 0.03911,0.03864 0.76277757,0.7826475 78.011504 0 1 0.03576,0.04128 0.76277757,0.7826475 78.011504 0 1 0.03355,0.04302 0.76277757,0.7826475 78.011504 0 1 0.03021,0.04566 0.76277757,0.7826475 78.011504 0 1 0.02583,0.04819 0.76277757,0.7826475 78.011504 0 1 0.02372,0.04896 0.76277757,0.7826475 78.011504 0 1 0.01837,0.05142 0.76277757,0.7826475 78.011504 0 1 0.01626,0.05221 0.76277757,0.7826475 78.011504 0 1 0.01112,0.05269 0.76277757,0.7826475 78.011504 0 1 0.0079,0.05433 0.76277757,0.7826475 78.011504 0 1 0.0041,0.05394 0.76277757,0.7826475 78.011504 0 1 -10e-4,0.05442 0.76277757,0.7826475 78.011504 0 1 -0.0041,0.05509 0.76277757,0.7826475 78.011504 0 1 -0.03118,0.146593 0.76277757,0.7826475 78.011504 0 1 -0.0616,0.137578 0.76277757,0.7826475 78.011504 0 1 -0.0864,0.124183 0.76277757,0.7826475 78.011504 0 1 -0.110638,0.105873 0.76277757,0.7826475 78.011504 0 1 -0.128191,0.08229 0.76277757,0.7826475 78.011504 0 1 -0.142492,0.05706 0.76277757,0.7826475 78.011504 0 1 -0.15034,0.02851 0.76277757,0.7826475 78.011504 0 1 -0.154055,-6.17e-4 0.76277757,0.7826475 78.011504 0 1 -0.149645,-0.02994 0.76277757,0.7826475 78.011504 0 1 -0.140335,-0.05775 0.76277757,0.7826475 78.011504 0 1 -0.126123,-0.08409 0.76277757,0.7826475 78.011504 0 1 -0.107355,-0.10599 0.76277757,0.7826475 78.011504 0 1 -0.0828,-0.125337 0.76277757,0.7826475 78.011504 0 1 -0.05693,-0.138597 0.76277757,0.7826475 78.011504 0 1 -0.0266,-0.146455 0.76277757,0.7826475 78.011504 0 1 0.0021,-0.149519 0.76277757,0.7826475 78.011504 0 1 0.03221,-0.146487 0.76277757,0.7826475 78.011504 0 1 0.05971,-0.138764 0.76277757,0.7826475 78.011504 0 1 0.0874,-0.124077 0.76277757,0.7826475 78.011504 0 1 0.109526,-0.104996 0.76277757,0.7826475 78.011504 0 1 0.129303,-0.08318 0.76277757,0.7826475 78.011504 0 1 0.142374,-0.0561 0.76277757,0.7826475 78.011504 0 1 0.150344,-0.02851 0.76277757,0.7826475 78.011504 0 1 0.153052,5.02e-4 z m -2.382245,2.056844 a 0.76277757,0.7826475 78.011504 0 1 0.05591,0.0076 0.76277757,0.7826475 78.011504 0 1 0.05444,0.0114 0.76277757,0.7826475 78.011504 0 1 0.0531,0.01427 0.76277757,0.7826475 78.011504 0 1 0.05253,0.01914 0.76277757,0.7826475 78.011504 0 1 0.05007,0.02291 0.76277757,0.7826475 78.011504 0 1 0.04873,0.02573 0.76277757,0.7826475 78.011504 0 1 0.04729,0.02957 0.76277757,0.7826475 78.011504 0 1 0.04395,0.03216 0.76277757,0.7826475 78.011504 0 1 0.04256,0.03503 0.76277757,0.7826475 78.011504 0 1 0.03911,0.03864 0.76277757,0.7826475 78.011504 0 1 0.03576,0.04128 0.76277757,0.7826475 78.011504 0 1 0.03355,0.04302 0.76277757,0.7826475 78.011504 0 1 0.03021,0.04566 0.76277757,0.7826475 78.011504 0 1 0.02583,0.04819 0.76277757,0.7826475 78.011504 0 1 0.02372,0.04896 0.76277757,0.7826475 78.011504 0 1 0.01837,0.05142 0.76277757,0.7826475 78.011504 0 1 0.01626,0.05221 0.76277757,0.7826475 78.011504 0 1 0.01112,0.05268 0.76277757,0.7826475 78.011504 0 1 0.0079,0.05434 0.76277757,0.7826475 78.011504 0 1 0.0041,0.05393 0.76277757,0.7826475 78.011504 0 1 -0.001,0.05443 0.76277757,0.7826475 78.011504 0 1 -0.0041,0.0551 0.76277757,0.7826475 78.011504 0 1 -0.03118,0.146588 0.76277757,0.7826475 78.011504 0 1 -0.0616,0.137583 0.76277757,0.7826475 78.011504 0 1 -0.0864,0.124183 0.76277757,0.7826475 78.011504 0 1 -0.110649,0.105874 0.76277757,0.7826475 78.011504 0 1 -0.128181,0.08229 0.76277757,0.7826475 78.011504 0 1 -0.142497,0.05706 0.76277757,0.7826475 78.011504 0 1 -0.150339,0.02851 0.76277757,0.7826475 78.011504 0 1 -0.15406,-6.17e-4 0.76277757,0.7826475 78.011504 0 1 -0.14964,-0.02994 0.76277757,0.7826475 78.011504 0 1 -0.140331,-0.05775 0.76277757,0.7826475 78.011504 0 1 -0.126122,-0.08408 0.76277757,0.7826475 78.011504 0 1 -0.107361,-0.105991 0.76277757,0.7826475 78.011504 0 1 -0.0828,-0.125337 0.76277757,0.7826475 78.011504 0 1 -0.05693,-0.138598 0.76277757,0.7826475 78.011504 0 1 -0.02758,-0.146561 0.76277757,0.7826475 78.011504 0 1 0.0021,-0.149514 0.76277757,0.7826475 78.011504 0 1 0.03221,-0.146487 0.76277757,0.7826475 78.011504 0 1 0.06069,-0.138667 0.76277757,0.7826475 78.011504 0 1 0.0874,-0.124078 0.76277757,0.7826475 78.011504 0 1 0.109527,-0.104996 0.76277757,0.7826475 78.011504 0 1 0.129303,-0.08318 0.76277757,0.7826475 78.011504 0 1 0.142373,-0.0561 0.76277757,0.7826475 78.011504 0 1 0.150335,-0.02851 0.76277757,0.7826475 78.011504 0 1 0.153056,5.03e-4 z" />
    <path
       id="path20336-1-6-4-2"
       style="fill:url(#linearGradient13);fill-opacity:1;stroke-width:0.514597;stroke-dasharray:none"
       d="m 58.784807,16.188669 a 1.5825892,1.6238147 78.011505 0 0 -1.794559,1.413927 1.5825892,1.6238147 78.011505 0 0 0.228985,0.997771 1.5825892,1.6238147 78.011505 0 0 -0.829772,-0.329389 1.5825892,1.6238147 78.011505 0 0 -1.79457,1.413927 1.5825892,1.6238147 78.011505 0 0 0.195166,0.939821 1.5825892,1.6238147 78.011505 0 0 -0.782846,-0.296904 1.5825892,1.6238147 78.011505 0 0 -1.794558,1.413928 1.5825892,1.6238147 78.011505 0 0 1.42886,1.738209 1.5825892,1.6238147 78.011505 0 0 1.794569,-1.413927 1.5825892,1.6238147 78.011505 0 0 -0.194167,-0.93972 1.5825892,1.6238147 78.011505 0 0 0.781842,0.296803 1.5825892,1.6238147 78.011505 0 0 1.794565,-1.413927 1.5825892,1.6238147 78.011505 0 0 -0.228991,-0.997772 1.5825892,1.6238147 78.011505 0 0 0.829773,0.329391 1.5825892,1.6238147 78.011505 0 0 1.794569,-1.413928 1.5825892,1.6238147 78.011505 0 0 -1.428866,-1.73821 z m -0.09472,0.816463 a 0.76277757,0.7826475 78.011504 0 1 0.05591,0.0076 0.76277757,0.7826475 78.011504 0 1 0.05445,0.0114 0.76277757,0.7826475 78.011504 0 1 0.0531,0.01427 0.76277757,0.7826475 78.011504 0 1 0.05253,0.01914 0.76277757,0.7826475 78.011504 0 1 0.05007,0.02291 0.76277757,0.7826475 78.011504 0 1 0.04873,0.02573 0.76277757,0.7826475 78.011504 0 1 0.04729,0.02957 0.76277757,0.7826475 78.011504 0 1 0.04395,0.03221 0.76277757,0.7826475 78.011504 0 1 0.04261,0.03503 0.76277757,0.7826475 78.011504 0 1 0.03911,0.03864 0.76277757,0.7826475 78.011504 0 1 0.03576,0.04128 0.76277757,0.7826475 78.011504 0 1 0.03355,0.04302 0.76277757,0.7826475 78.011504 0 1 0.03021,0.04566 0.76277757,0.7826475 78.011504 0 1 0.02588,0.04819 0.76277757,0.7826475 78.011504 0 1 0.02372,0.04896 0.76277757,0.7826475 78.011504 0 1 0.01837,0.05142 0.76277757,0.7826475 78.011504 0 1 0.01626,0.05221 0.76277757,0.7826475 78.011504 0 1 0.01112,0.05268 0.76277757,0.7826475 78.011504 0 1 0.0079,0.05433 0.76277757,0.7826475 78.011504 0 1 0.0041,0.05393 0.76277757,0.7826475 78.011504 0 1 -10e-4,0.05443 0.76277757,0.7826475 78.011504 0 1 -0.0041,0.0551 0.76277757,0.7826475 78.011504 0 1 -0.03119,0.146587 0.76277757,0.7826475 78.011504 0 1 -0.0616,0.137584 0.76277757,0.7826475 78.011504 0 1 -0.0864,0.124183 0.76277757,0.7826475 78.011504 0 1 -0.110643,0.105874 0.76277757,0.7826475 78.011504 0 1 -0.128187,0.08229 0.76277757,0.7826475 78.011504 0 1 -0.142497,0.05706 0.76277757,0.7826475 78.011504 0 1 -0.150339,0.02851 0.76277757,0.7826475 78.011504 0 1 -0.15406,-6.18e-4 0.76277757,0.7826475 78.011504 0 1 -0.14964,-0.02994 0.76277757,0.7826475 78.011504 0 1 -0.140331,-0.05775 0.76277757,0.7826475 78.011504 0 1 -0.126122,-0.08408 0.76277757,0.7826475 78.011504 0 1 -0.107355,-0.105991 0.76277757,0.7826475 78.011504 0 1 -0.0828,-0.125337 0.76277757,0.7826475 78.011504 0 1 -0.05694,-0.138598 0.76277757,0.7826475 78.011504 0 1 -0.02758,-0.14656 0.76277757,0.7826475 78.011504 0 1 0.0021,-0.149514 0.76277757,0.7826475 78.011504 0 1 0.03221,-0.146488 0.76277757,0.7826475 78.011504 0 1 0.06069,-0.138667 0.76277757,0.7826475 78.011504 0 1 0.0874,-0.124082 0.76277757,0.7826475 78.011504 0 1 0.109527,-0.104996 0.76277757,0.7826475 78.011504 0 1 0.129303,-0.08318 0.76277757,0.7826475 78.011504 0 1 0.142374,-0.0561 0.76277757,0.7826475 78.011504 0 1 0.150339,-0.02851 0.76277757,0.7826475 78.011504 0 1 0.153051,5.02e-4 z m -2.395331,2.082299 a 0.76277757,0.7826475 78.011504 0 1 0.0559,0.0076 0.76277757,0.7826475 78.011504 0 1 0.05445,0.0114 0.76277757,0.7826475 78.011504 0 1 0.0531,0.01427 0.76277757,0.7826475 78.011504 0 1 0.05253,0.01914 0.76277757,0.7826475 78.011504 0 1 0.05007,0.02291 0.76277757,0.7826475 78.011504 0 1 0.04873,0.02573 0.76277757,0.7826475 78.011504 0 1 0.04729,0.02957 0.76277757,0.7826475 78.011504 0 1 0.04395,0.03221 0.76277757,0.7826475 78.011504 0 1 0.04256,0.03503 0.76277757,0.7826475 78.011504 0 1 0.03911,0.03864 0.76277757,0.7826475 78.011504 0 1 0.03576,0.04128 0.76277757,0.7826475 78.011504 0 1 0.03355,0.04302 0.76277757,0.7826475 78.011504 0 1 0.03021,0.04566 0.76277757,0.7826475 78.011504 0 1 0.02583,0.04819 0.76277757,0.7826475 78.011504 0 1 0.02372,0.04896 0.76277757,0.7826475 78.011504 0 1 0.01837,0.05142 0.76277757,0.7826475 78.011504 0 1 0.01626,0.05221 0.76277757,0.7826475 78.011504 0 1 0.01111,0.05269 0.76277757,0.7826475 78.011504 0 1 0.0079,0.05433 0.76277757,0.7826475 78.011504 0 1 0.0041,0.05394 0.76277757,0.7826475 78.011504 0 1 -10e-4,0.05442 0.76277757,0.7826475 78.011504 0 1 -0.0041,0.05509 0.76277757,0.7826475 78.011504 0 1 -0.03119,0.146592 0.76277757,0.7826475 78.011504 0 1 -0.0616,0.137579 0.76277757,0.7826475 78.011504 0 1 -0.0864,0.124183 0.76277757,0.7826475 78.011504 0 1 -0.110638,0.105873 0.76277757,0.7826475 78.011504 0 1 -0.128192,0.0823 0.76277757,0.7826475 78.011504 0 1 -0.142492,0.05706 0.76277757,0.7826475 78.011504 0 1 -0.150339,0.02851 0.76277757,0.7826475 78.011504 0 1 -0.154055,-6.17e-4 0.76277757,0.7826475 78.011504 0 1 -0.149645,-0.02994 0.76277757,0.7826475 78.011504 0 1 -0.140336,-0.05775 0.76277757,0.7826475 78.011504 0 1 -0.126122,-0.08409 0.76277757,0.7826475 78.011504 0 1 -0.107355,-0.10599 0.76277757,0.7826475 78.011504 0 1 -0.0828,-0.125337 0.76277757,0.7826475 78.011504 0 1 -0.05693,-0.138597 0.76277757,0.7826475 78.011504 0 1 -0.02661,-0.146455 0.76277757,0.7826475 78.011504 0 1 0.0021,-0.149519 0.76277757,0.7826475 78.011504 0 1 0.03221,-0.146487 0.76277757,0.7826475 78.011504 0 1 0.05971,-0.138764 0.76277757,0.7826475 78.011504 0 1 0.0874,-0.124077 0.76277757,0.7826475 78.011504 0 1 0.109527,-0.104996 0.76277757,0.7826475 78.011504 0 1 0.129303,-0.08318 0.76277757,0.7826475 78.011504 0 1 0.142373,-0.0561 0.76277757,0.7826475 78.011504 0 1 0.150345,-0.02851 0.76277757,0.7826475 78.011504 0 1 0.153052,5.02e-4 z m -2.382244,2.056844 a 0.76277757,0.7826475 78.011504 0 1 0.05591,0.0076 0.76277757,0.7826475 78.011504 0 1 0.05444,0.0114 0.76277757,0.7826475 78.011504 0 1 0.0531,0.01427 0.76277757,0.7826475 78.011504 0 1 0.05253,0.01914 0.76277757,0.7826475 78.011504 0 1 0.05007,0.02291 0.76277757,0.7826475 78.011504 0 1 0.04873,0.02573 0.76277757,0.7826475 78.011504 0 1 0.04729,0.02957 0.76277757,0.7826475 78.011504 0 1 0.04395,0.03216 0.76277757,0.7826475 78.011504 0 1 0.04256,0.03503 0.76277757,0.7826475 78.011504 0 1 0.03911,0.03864 0.76277757,0.7826475 78.011504 0 1 0.03576,0.04128 0.76277757,0.7826475 78.011504 0 1 0.03355,0.04302 0.76277757,0.7826475 78.011504 0 1 0.03021,0.04566 0.76277757,0.7826475 78.011504 0 1 0.02583,0.04819 0.76277757,0.7826475 78.011504 0 1 0.02372,0.04896 0.76277757,0.7826475 78.011504 0 1 0.01837,0.05142 0.76277757,0.7826475 78.011504 0 1 0.01626,0.05221 0.76277757,0.7826475 78.011504 0 1 0.01112,0.05268 0.76277757,0.7826475 78.011504 0 1 0.0079,0.05434 0.76277757,0.7826475 78.011504 0 1 0.0041,0.05393 0.76277757,0.7826475 78.011504 0 1 -10e-4,0.05443 0.76277757,0.7826475 78.011504 0 1 -0.0041,0.0551 0.76277757,0.7826475 78.011504 0 1 -0.03118,0.146588 0.76277757,0.7826475 78.011504 0 1 -0.0616,0.137583 0.76277757,0.7826475 78.011504 0 1 -0.0864,0.124183 0.76277757,0.7826475 78.011504 0 1 -0.110649,0.105874 0.76277757,0.7826475 78.011504 0 1 -0.128181,0.08229 0.76277757,0.7826475 78.011504 0 1 -0.142497,0.05706 0.76277757,0.7826475 78.011504 0 1 -0.15034,0.02851 0.76277757,0.7826475 78.011504 0 1 -0.15406,-6.17e-4 0.76277757,0.7826475 78.011504 0 1 -0.149639,-0.02994 0.76277757,0.7826475 78.011504 0 1 -0.140331,-0.05775 0.76277757,0.7826475 78.011504 0 1 -0.126123,-0.08408 0.76277757,0.7826475 78.011504 0 1 -0.10736,-0.105991 0.76277757,0.7826475 78.011504 0 1 -0.0828,-0.125338 0.76277757,0.7826475 78.011504 0 1 -0.05693,-0.138597 0.76277757,0.7826475 78.011504 0 1 -0.02758,-0.146561 0.76277757,0.7826475 78.011504 0 1 0.0021,-0.149514 0.76277757,0.7826475 78.011504 0 1 0.03221,-0.146487 0.76277757,0.7826475 78.011504 0 1 0.06069,-0.138667 0.76277757,0.7826475 78.011504 0 1 0.0874,-0.124078 0.76277757,0.7826475 78.011504 0 1 0.109527,-0.104996 0.76277757,0.7826475 78.011504 0 1 0.129302,-0.08318 0.76277757,0.7826475 78.011504 0 1 0.142374,-0.0561 0.76277757,0.7826475 78.011504 0 1 0.150334,-0.02851 0.76277757,0.7826475 78.011504 0 1 0.153057,5.03e-4 z" />
  </g>
  <g
     id="g26"
     transform="translate(-46.397732,-10.035113)">
    <text
       xml:space="preserve"
       style="text-align:start;writing-mode:lr-tb;direction:ltr;text-anchor:start;fill:url(#linearGradient15);fill-opacity:1;stroke:#ffffff;stroke-width:0.3;paint-order:markers stroke fill"
       x="74"
       y="26.703093"
       id="text13"><tspan
         id="tspan13"
         x="74"
         y="26.703093"
         style="font-style:normal;font-variant:normal;font-weight:800;font-stretch:normal;font-family:'Iosevka Nerd Font';-inkscape-font-specification:'Iosevka Nerd Font Ultra-Bold';fill:url(#linearGradient15);fill-opacity:1">Cavasik</tspan></text>
    <path
       id="path20336-1-6-2-6"
       style="fill:url(#linearGradient16);fill-opacity:1;stroke-width:0.43477;stroke-dasharray:none"
       d="m 89.910152,26.843904 a 1.3370904,1.3719208 11.981599 0 0 -0.475608,-1.870738 1.3370904,1.3719208 11.981599 0 0 -0.848887,-0.165697 1.3370904,1.3719208 11.981599 0 0 0.539105,-0.527535 1.3370904,1.3719208 11.981599 0 0 -0.475605,-1.870743 1.3370904,1.3719208 11.981599 0 0 -0.792539,-0.171916 1.3370904,1.3719208 11.981599 0 0 0.497913,-0.502458 1.3370904,1.3719208 11.981599 0 0 -0.4756,-1.870732 1.3370904,1.3719208 11.981599 0 0 -1.832357,0.506475 1.3370904,1.3719208 11.981599 0 0 0.475596,1.870741 1.3370904,1.3719208 11.981599 0 0 0.792121,0.172642 1.3370904,1.3719208 11.981599 0 0 -0.497492,0.501719 1.3370904,1.3719208 11.981599 0 0 0.475606,1.870739 1.3370904,1.3719208 11.981599 0 0 0.848887,0.165697 1.3370904,1.3719208 11.981599 0 0 -0.539102,0.527535 1.3370904,1.3719208 11.981599 0 0 0.475603,1.870743 1.3370904,1.3719208 11.981599 0 0 1.832359,-0.506479 z M 89.312345,26.49054 a 0.64445188,0.66123949 11.981598 0 1 -0.02534,0.04041 0.64445188,0.66123949 11.981598 0 1 -0.02747,0.03814 0.64445188,0.66123949 11.981598 0 1 -0.02923,0.03611 0.64445188,0.66123949 11.981598 0 1 -0.03279,0.03401 0.64445188,0.66123949 11.981598 0 1 -0.03487,0.0308 0.64445188,0.66123949 11.981598 0 1 -0.03657,0.02879 0.64445188,0.66123949 11.981598 0 1 -0.03909,0.02635 0.64445188,0.66123949 11.981598 0 1 -0.03993,0.02288 0.64445188,0.66123949 11.981598 0 1 -0.04165,0.02088 0.64445188,0.66123949 11.981598 0 1 -0.04322,0.01694 0.64445188,0.66123949 11.981598 0 1 -0.04415,0.01344 0.64445188,0.66123949 11.981598 0 1 -0.0447,0.01114 0.64445188,0.66123949 11.981598 0 1 -0.04558,0.0077 0.64445188,0.66123949 11.981598 0 1 -0.0461,0.0035 0.64445188,0.66123949 11.981598 0 1 -0.04588,0.0015 0.64445188,0.66123949 11.981598 0 1 -0.04599,-0.0035 0.64445188,0.66123949 11.981598 0 1 -0.04589,-0.0054 0.64445188,0.66123949 11.981598 0 1 -0.04451,-0.0094 0.64445188,0.66123949 11.981598 0 1 -0.04461,-0.01257 0.64445188,0.66123949 11.981598 0 1 -0.043,-0.01538 0.64445188,0.66123949 11.981598 0 1 -0.04165,-0.01946 0.64445188,0.66123949 11.981598 0 1 -0.04114,-0.02208 0.64445188,0.66123949 11.981598 0 1 -0.102462,-0.0744 0.64445188,0.66123949 11.981598 0 1 -0.08508,-0.09477 0.64445188,0.66123949 11.981598 0 1 -0.0662,-0.109327 0.64445188,0.66123949 11.981598 0 1 -0.04377,-0.12176 0.64445188,0.66123949 11.981598 0 1 -0.01954,-0.127209 0.64445188,0.66123949 11.981598 0 1 0.0048,-0.129609 0.64445188,0.66123949 11.981598 0 1 0.02962,-0.125844 0.64445188,0.66123949 11.981598 0 1 0.05327,-0.11876 0.64445188,0.66123949 11.981598 0 1 0.07446,-0.105258 0.64445188,0.66123949 11.981598 0 1 0.09271,-0.08853 0.64445188,0.66123949 11.981598 0 1 0.108212,-0.06851 0.64445188,0.66123949 11.981598 0 1 0.118673,-0.0465 0.64445188,0.66123949 11.981598 0 1 0.125178,-0.02091 0.64445188,0.66123949 11.981598 0 1 0.126555,0.0036 0.64445188,0.66123949 11.981598 0 1 0.122612,0.02897 0.64445188,0.66123949 11.981598 0 1 0.11471,0.05295 0.64445188,0.66123949 11.981598 0 1 0.102026,0.07514 0.64445188,0.66123949 11.981598 0 1 0.08622,0.09445 0.64445188,0.66123949 11.981598 0 1 0.06579,0.110063 0.64445188,0.66123949 11.981598 0 1 0.04347,0.120595 0.64445188,0.66123949 11.981598 0 1 0.01984,0.12838 0.64445188,0.66123949 11.981598 0 1 -0.0056,0.129172 0.64445188,0.66123949 11.981598 0 1 -0.02963,0.125838 0.64445188,0.66123949 11.981598 0 1 -0.05292,0.117987 z M 88.52695,23.926588 a 0.64445188,0.66123949 11.981598 0 1 -0.02534,0.04041 0.64445188,0.66123949 11.981598 0 1 -0.02746,0.03814 0.64445188,0.66123949 11.981598 0 1 -0.02923,0.03611 0.64445188,0.66123949 11.981598 0 1 -0.03278,0.03399 0.64445188,0.66123949 11.981598 0 1 -0.03487,0.03079 0.64445188,0.66123949 11.981598 0 1 -0.03657,0.02879 0.64445188,0.66123949 11.981598 0 1 -0.03908,0.02635 0.64445188,0.66123949 11.981598 0 1 -0.03994,0.02287 0.64445188,0.66123949 11.981598 0 1 -0.04163,0.02084 0.64445188,0.66123949 11.981598 0 1 -0.0433,0.01691 0.64445188,0.66123949 11.981598 0 1 -0.04416,0.01344 0.64445188,0.66123949 11.981598 0 1 -0.04471,0.01114 0.64445188,0.66123949 11.981598 0 1 -0.04558,0.0077 0.64445188,0.66123949 11.981598 0 1 -0.04609,0.0035 0.64445188,0.66123949 11.981598 0 1 -0.04588,0.0015 0.64445188,0.66123949 11.981598 0 1 -0.04599,-0.0035 0.64445188,0.66123949 11.981598 0 1 -0.04588,-0.0054 0.64445188,0.66123949 11.981598 0 1 -0.0445,-0.0094 0.64445188,0.66123949 11.981598 0 1 -0.04461,-0.01257 0.64445188,0.66123949 11.981598 0 1 -0.04301,-0.01538 0.64445188,0.66123949 11.981598 0 1 -0.04165,-0.01946 0.64445188,0.66123949 11.981598 0 1 -0.04114,-0.02208 0.64445188,0.66123949 11.981598 0 1 -0.102462,-0.07439 0.64445188,0.66123949 11.981598 0 1 -0.08508,-0.09477 0.64445188,0.66123949 11.981598 0 1 -0.0662,-0.109328 0.64445188,0.66123949 11.981598 0 1 -0.04377,-0.121754 0.64445188,0.66123949 11.981598 0 1 -0.01953,-0.127213 0.64445188,0.66123949 11.981598 0 1 0.0048,-0.129605 0.64445188,0.66123949 11.981598 0 1 0.02962,-0.125843 0.64445188,0.66123949 11.981598 0 1 0.05327,-0.118757 0.64445188,0.66123949 11.981598 0 1 0.07446,-0.105261 0.64445188,0.66123949 11.981598 0 1 0.0927,-0.08854 0.64445188,0.66123949 11.981598 0 1 0.108222,-0.06851 0.64445188,0.66123949 11.981598 0 1 0.118672,-0.0465 0.64445188,0.66123949 11.981598 0 1 0.125185,-0.0209 0.64445188,0.66123949 11.981598 0 1 0.126533,0.0036 0.64445188,0.66123949 11.981598 0 1 0.122196,0.02974 0.64445188,0.66123949 11.981598 0 1 0.114708,0.05295 0.64445188,0.66123949 11.981598 0 1 0.102029,0.07515 0.64445188,0.66123949 11.981598 0 1 0.08664,0.09372 0.64445188,0.66123949 11.981598 0 1 0.06579,0.110059 0.64445188,0.66123949 11.981598 0 1 0.04347,0.120595 0.64445188,0.66123949 11.981598 0 1 0.01985,0.12838 0.64445188,0.66123949 11.981598 0 1 -0.0056,0.129168 0.64445188,0.66123949 11.981598 0 1 -0.02962,0.125847 0.64445188,0.66123949 11.981598 0 1 -0.05292,0.117987 z m -0.770225,-2.545107 a 0.64445188,0.66123949 11.981598 0 1 -0.02535,0.04043 0.64445188,0.66123949 11.981598 0 1 -0.02746,0.03813 0.64445188,0.66123949 11.981598 0 1 -0.02923,0.0361 0.64445188,0.66123949 11.981598 0 1 -0.03285,0.03397 0.64445188,0.66123949 11.981598 0 1 -0.03487,0.03079 0.64445188,0.66123949 11.981598 0 1 -0.03657,0.0288 0.64445188,0.66123949 11.981598 0 1 -0.03908,0.02635 0.64445188,0.66123949 11.981598 0 1 -0.03994,0.02288 0.64445188,0.66123949 11.981598 0 1 -0.04163,0.02084 0.64445188,0.66123949 11.981598 0 1 -0.0433,0.01691 0.64445188,0.66123949 11.981598 0 1 -0.04415,0.01344 0.64445188,0.66123949 11.981598 0 1 -0.04471,0.01114 0.64445188,0.66123949 11.981598 0 1 -0.04558,0.0077 0.64445188,0.66123949 11.981598 0 1 -0.04608,0.0035 0.64445188,0.66123949 11.981598 0 1 -0.04588,0.0015 0.64445188,0.66123949 11.981598 0 1 -0.046,-0.0035 0.64445188,0.66123949 11.981598 0 1 -0.04588,-0.0054 0.64445188,0.66123949 11.981598 0 1 -0.04451,-0.0094 0.64445188,0.66123949 11.981598 0 1 -0.04461,-0.01257 0.64445188,0.66123949 11.981598 0 1 -0.04301,-0.01538 0.64445188,0.66123949 11.981598 0 1 -0.04165,-0.01946 0.64445188,0.66123949 11.981598 0 1 -0.04114,-0.02207 0.64445188,0.66123949 11.981598 0 1 -0.102463,-0.07439 0.64445188,0.66123949 11.981598 0 1 -0.08508,-0.09477 0.64445188,0.66123949 11.981598 0 1 -0.0662,-0.109328 0.64445188,0.66123949 11.981598 0 1 -0.04375,-0.121758 0.64445188,0.66123949 11.981598 0 1 -0.01955,-0.127209 0.64445188,0.66123949 11.981598 0 1 0.0048,-0.129609 0.64445188,0.66123949 11.981598 0 1 0.02963,-0.125837 0.64445188,0.66123949 11.981598 0 1 0.05328,-0.118759 0.64445188,0.66123949 11.981598 0 1 0.07446,-0.105258 0.64445188,0.66123949 11.981598 0 1 0.09279,-0.0885 0.64445188,0.66123949 11.981598 0 1 0.108212,-0.06851 0.64445188,0.66123949 11.981598 0 1 0.118665,-0.04651 0.64445188,0.66123949 11.981598 0 1 0.125184,-0.0209 0.64445188,0.66123949 11.981598 0 1 0.126543,0.0036 0.64445188,0.66123949 11.981598 0 1 0.122624,0.02897 0.64445188,0.66123949 11.981598 0 1 0.114703,0.05294 0.64445188,0.66123949 11.981598 0 1 0.102036,0.07515 0.64445188,0.66123949 11.981598 0 1 0.08622,0.09445 0.64445188,0.66123949 11.981598 0 1 0.0658,0.110064 0.64445188,0.66123949 11.981598 0 1 0.04347,0.120596 0.64445188,0.66123949 11.981598 0 1 0.01984,0.128381 0.64445188,0.66123949 11.981598 0 1 -0.0056,0.129166 0.64445188,0.66123949 11.981598 0 1 -0.02963,0.125836 0.64445188,0.66123949 11.981598 0 1 -0.05292,0.117989 z" />
    <path
       id="path20336-1-6-2-6-5"
       style="fill:url(#linearGradient18);fill-opacity:1;stroke-width:0.43477;stroke-dasharray:none"
       d="m 89.761971,27.437314 a 1.3370904,1.3719208 46.302052 0 0 0.661959,-1.813195 1.3370904,1.3719208 46.302052 0 0 -0.607671,-0.615468 1.3370904,1.3719208 46.302052 0 0 0.742681,-0.131732 1.3370904,1.3719208 46.302052 0 0 0.661963,-1.813197 1.3370904,1.3719208 46.302052 0 0 -0.557626,-0.588835 1.3370904,1.3719208 46.302052 0 0 0.694521,-0.134245 1.3370904,1.3719208 46.302052 0 0 0.661962,-1.813185 1.3370904,1.3719208 46.302052 0 0 -1.798899,-0.614825 1.3370904,1.3719208 46.302052 0 0 -0.661971,1.81319 1.3370904,1.3719208 46.302052 0 0 0.556872,0.589199 1.3370904,1.3719208 46.302052 0 0 -0.693757,0.133873 1.3370904,1.3719208 46.302052 0 0 -0.66196,1.813194 1.3370904,1.3719208 46.302052 0 0 0.60767,0.615468 1.3370904,1.3719208 46.302052 0 0 -0.742678,0.131733 1.3370904,1.3719208 46.302052 0 0 -0.661965,1.813197 1.3370904,1.3719208 46.302052 0 0 1.798904,0.614822 z m -0.294493,-0.628898 a 0.64445188,0.66123949 46.302051 0 1 -0.04371,0.01909 0.64445188,0.66123949 46.302051 0 1 -0.04419,0.01601 0.64445188,0.66123949 46.302051 0 1 -0.0445,0.01335 0.64445188,0.66123949 46.302051 0 1 -0.04626,0.0096 0.64445188,0.66123949 46.302051 0 1 -0.04616,0.0057 0.64445188,0.66123949 46.302051 0 1 -0.04643,0.0031 0.64445188,0.66123949 46.302051 0 1 -0.04715,-2.52e-4 0.64445188,0.66123949 46.302051 0 1 -0.04588,-0.0036 0.64445188,0.66123949 46.302051 0 1 -0.04618,-0.0062 0.64445188,0.66123949 46.302051 0 1 -0.04525,-0.01034 0.64445188,0.66123949 46.302051 0 1 -0.04405,-0.0138 0.64445188,0.66123949 46.302051 0 1 -0.0432,-0.016 0.64445188,0.66123949 46.302051 0 1 -0.04198,-0.01934 0.64445188,0.66123949 46.302051 0 1 -0.04004,-0.0231 0.64445188,0.66123949 46.302051 0 1 -0.03874,-0.02463 0.64445188,0.66123949 46.302051 0 1 -0.03601,-0.02883 0.64445188,0.66123949 46.302051 0 1 -0.03485,-0.03033 0.64445188,0.66123949 46.302051 0 1 -0.03146,-0.03286 0.64445188,0.66123949 46.302051 0 1 -0.02976,-0.03553 0.64445188,0.66123949 46.302051 0 1 -0.02684,-0.03695 0.64445188,0.66123949 46.302051 0 1 -0.02343,-0.03956 0.64445188,0.66123949 46.302051 0 1 -0.02153,-0.04143 0.64445188,0.66123949 46.302051 0 1 -0.04268,-0.119217 0.64445188,0.66123949 46.302051 0 1 -0.01684,-0.126242 0.64445188,0.66123949 46.302051 0 1 0.0069,-0.12762 0.64445188,0.66123949 46.302051 0 1 0.0325,-0.12524 0.64445188,0.66123949 46.302051 0 1 0.05558,-0.116078 0.64445188,0.66123949 46.302051 0 1 0.07704,-0.104338 0.64445188,0.66123949 46.302051 0 1 0.09541,-0.08723 0.64445188,0.66123949 46.302051 0 1 0.110955,-0.06804 0.64445188,0.66123949 46.302051 0 1 0.120843,-0.04495 0.64445188,0.66123949 46.302051 0 1 0.126484,-0.02084 0.64445188,0.66123949 46.302051 0 1 0.127997,0.0045 0.64445188,0.66123949 46.302051 0 1 0.124229,0.02851 0.64445188,0.66123949 46.302051 0 1 0.115174,0.05331 0.64445188,0.66123949 46.302051 0 1 0.102492,0.07432 0.64445188,0.66123949 46.302051 0 1 0.08493,0.09305 0.64445188,0.66123949 46.302051 0 1 0.06489,0.108407 0.64445188,0.66123949 46.302051 0 1 0.0419,0.119583 0.64445188,0.66123949 46.302051 0 1 0.01795,0.126618 0.64445188,0.66123949 46.302051 0 1 -0.0078,0.127992 0.64445188,0.66123949 46.302051 0 1 -0.03209,0.124108 0.64445188,0.66123949 46.302051 0 1 -0.056,0.117214 0.64445188,0.66123949 46.302051 0 1 -0.07746,0.103525 0.64445188,0.66123949 46.302051 0 1 -0.09542,0.08722 0.64445188,0.66123949 46.302051 0 1 -0.110231,0.06761 z m 0.796954,-2.560383 a 0.64445188,0.66123949 46.302051 0 1 -0.04371,0.01909 0.64445188,0.66123949 46.302051 0 1 -0.04418,0.01602 0.64445188,0.66123949 46.302051 0 1 -0.0445,0.01335 0.64445188,0.66123949 46.302051 0 1 -0.04623,0.0096 0.64445188,0.66123949 46.302051 0 1 -0.04615,0.0057 0.64445188,0.66123949 46.302051 0 1 -0.04644,0.0031 0.64445188,0.66123949 46.302051 0 1 -0.04713,-2.52e-4 0.64445188,0.66123949 46.302051 0 1 -0.04588,-0.0036 0.64445188,0.66123949 46.302051 0 1 -0.04613,-0.0063 0.64445188,0.66123949 46.302051 0 1 -0.04529,-0.01044 0.64445188,0.66123949 46.302051 0 1 -0.04405,-0.0138 0.64445188,0.66123949 46.302051 0 1 -0.04321,-0.01601 0.64445188,0.66123949 46.302051 0 1 -0.04198,-0.01934 0.64445188,0.66123949 46.302051 0 1 -0.04004,-0.02309 0.64445188,0.66123949 46.302051 0 1 -0.03873,-0.02463 0.64445188,0.66123949 46.302051 0 1 -0.03601,-0.02882 0.64445188,0.66123949 46.302051 0 1 -0.03484,-0.03033 0.64445188,0.66123949 46.302051 0 1 -0.03145,-0.03285 0.64445188,0.66123949 46.302051 0 1 -0.02976,-0.03553 0.64445188,0.66123949 46.302051 0 1 -0.02685,-0.03696 0.64445188,0.66123949 46.302051 0 1 -0.02343,-0.03956 0.64445188,0.66123949 46.302051 0 1 -0.02153,-0.04143 0.64445188,0.66123949 46.302051 0 1 -0.04268,-0.119209 0.64445188,0.66123949 46.302051 0 1 -0.01684,-0.12624 0.64445188,0.66123949 46.302051 0 1 0.0069,-0.127622 0.64445188,0.66123949 46.302051 0 1 0.0325,-0.125234 0.64445188,0.66123949 46.302051 0 1 0.05559,-0.116077 0.64445188,0.66123949 46.302051 0 1 0.07704,-0.104334 0.64445188,0.66123949 46.302051 0 1 0.09541,-0.08723 0.64445188,0.66123949 46.302051 0 1 0.110954,-0.06804 0.64445188,0.66123949 46.302051 0 1 0.120844,-0.04495 0.64445188,0.66123949 46.302051 0 1 0.126482,-0.02086 0.64445188,0.66123949 46.302051 0 1 0.128006,0.0045 0.64445188,0.66123949 46.302051 0 1 0.124228,0.02851 0.64445188,0.66123949 46.302051 0 1 0.115173,0.05332 0.64445188,0.66123949 46.302051 0 1 0.102474,0.07432 0.64445188,0.66123949 46.302051 0 1 0.08416,0.09346 0.64445188,0.66123949 46.302051 0 1 0.06488,0.108406 0.64445188,0.66123949 46.302051 0 1 0.0419,0.119593 0.64445188,0.66123949 46.302051 0 1 0.01871,0.126252 0.64445188,0.66123949 46.302051 0 1 -0.0078,0.127987 0.64445188,0.66123949 46.302051 0 1 -0.03209,0.124109 0.64445188,0.66123949 46.302051 0 1 -0.05599,0.11722 0.64445188,0.66123949 46.302051 0 1 -0.07745,0.103523 0.64445188,0.66123949 46.302051 0 1 -0.09541,0.08724 0.64445188,0.66123949 46.302051 0 1 -0.110231,0.06761 z m 0.798858,-2.536265 a 0.64445188,0.66123949 46.302051 0 1 -0.04373,0.0191 0.64445188,0.66123949 46.302051 0 1 -0.04418,0.01601 0.64445188,0.66123949 46.302051 0 1 -0.04449,0.01334 0.64445188,0.66123949 46.302051 0 1 -0.04628,0.0095 0.64445188,0.66123949 46.302051 0 1 -0.04615,0.0057 0.64445188,0.66123949 46.302051 0 1 -0.04644,0.0032 0.64445188,0.66123949 46.302051 0 1 -0.04713,-2.52e-4 0.64445188,0.66123949 46.302051 0 1 -0.04589,-0.0036 0.64445188,0.66123949 46.302051 0 1 -0.04613,-0.0063 0.64445188,0.66123949 46.302051 0 1 -0.04529,-0.01044 0.64445188,0.66123949 46.302051 0 1 -0.04404,-0.0138 0.64445188,0.66123949 46.302051 0 1 -0.04321,-0.01601 0.64445188,0.66123949 46.302051 0 1 -0.04198,-0.01934 0.64445188,0.66123949 46.302051 0 1 -0.04003,-0.02309 0.64445188,0.66123949 46.302051 0 1 -0.03873,-0.02463 0.64445188,0.66123949 46.302051 0 1 -0.03602,-0.02883 0.64445188,0.66123949 46.302051 0 1 -0.03484,-0.03033 0.64445188,0.66123949 46.302051 0 1 -0.03147,-0.03285 0.64445188,0.66123949 46.302051 0 1 -0.02976,-0.03553 0.64445188,0.66123949 46.302051 0 1 -0.02685,-0.03695 0.64445188,0.66123949 46.302051 0 1 -0.02343,-0.03956 0.64445188,0.66123949 46.302051 0 1 -0.02153,-0.04142 0.64445188,0.66123949 46.302051 0 1 -0.04268,-0.119209 0.64445188,0.66123949 46.302051 0 1 -0.01684,-0.12624 0.64445188,0.66123949 46.302051 0 1 0.0069,-0.127622 0.64445188,0.66123949 46.302051 0 1 0.03252,-0.125226 0.64445188,0.66123949 46.302051 0 1 0.05557,-0.116085 0.64445188,0.66123949 46.302051 0 1 0.07704,-0.104337 0.64445188,0.66123949 46.302051 0 1 0.09542,-0.08722 0.64445188,0.66123949 46.302051 0 1 0.110963,-0.06804 0.64445188,0.66123949 46.302051 0 1 0.120843,-0.04495 0.64445188,0.66123949 46.302051 0 1 0.126533,-0.02078 0.64445188,0.66123949 46.302051 0 1 0.127998,0.0045 0.64445188,0.66123949 46.302051 0 1 0.124228,0.02849 0.64445188,0.66123949 46.302051 0 1 0.115173,0.05332 0.64445188,0.66123949 46.302051 0 1 0.102482,0.07432 0.64445188,0.66123949 46.302051 0 1 0.08494,0.09306 0.64445188,0.66123949 46.302051 0 1 0.06489,0.108395 0.64445188,0.66123949 46.302051 0 1 0.0419,0.119597 0.64445188,0.66123949 46.302051 0 1 0.01795,0.126618 0.64445188,0.66123949 46.302051 0 1 -0.0077,0.128004 0.64445188,0.66123949 46.302051 0 1 -0.03209,0.12411 0.64445188,0.66123949 46.302051 0 1 -0.056,0.117216 0.64445188,0.66123949 46.302051 0 1 -0.07745,0.10352 0.64445188,0.66123949 46.302051 0 1 -0.09542,0.08722 0.64445188,0.66123949 46.302051 0 1 -0.110232,0.06761 z" />
  </g>
</svg>
