<?xml version="1.0" encoding="UTF-8" standalone="no"?>
<svg
   height="31.325825"
   viewBox="0 0 31.414215 31.325825"
   width="31.414215"
   version="1.1"
   id="svg2633"
   sodipodi:docname="io.github.fsobolev.Cavasik-Workspace.svg"
   inkscape:version="1.4.2 (ebf0e940d0, 2025-05-08)"
   inkscape:export-filename="../io.github.TheWisker.Cavasik.svg"
   inkscape:export-xdpi="96"
   inkscape:export-ydpi="96"
   xmlns:inkscape="http://www.inkscape.org/namespaces/inkscape"
   xmlns:sodipodi="http://sodipodi.sourceforge.net/DTD/sodipodi-0.dtd"
   xmlns:xlink="http://www.w3.org/1999/xlink"
   xmlns="http://www.w3.org/2000/svg"
   xmlns:svg="http://www.w3.org/2000/svg">
  <defs
     id="defs2637">
    <linearGradient
       inkscape:collect="always"
       id="linearGradient11">
      <stop
         style="stop-color:#000000;stop-opacity:0.50017846;"
         offset="0"
         id="stop9" />
      <stop
         style="stop-color:#000000;stop-opacity:1;"
         offset="0.49699441"
         id="stop10" />
      <stop
         style="stop-color:#000000;stop-opacity:0.49821216;"
         offset="1"
         id="stop11" />
    </linearGradient>
    <linearGradient
       id="linearGradient4"
       inkscape:collect="always">
      <stop
         style="stop-color:#7015c3;stop-opacity:1;"
         offset="0"
         id="stop4" />
      <stop
         style="stop-color:#8326d5;stop-opacity:0.62352943;"
         offset="0.5"
         id="stop6" />
      <stop
         style="stop-color:#4dd3f5;stop-opacity:1;"
         offset="1"
         id="stop5" />
    </linearGradient>
    <linearGradient
       inkscape:collect="always"
       id="linearGradient20537">
      <stop
         style="stop-color:#ffffff;stop-opacity:0.5001784;"
         offset="0"
         id="stop20533" />
      <stop
         style="stop-color:#ffffff;stop-opacity:1;"
         offset="0.49699441"
         id="stop20541" />
      <stop
         style="stop-color:#ffffff;stop-opacity:0.49821213;"
         offset="1"
         id="stop20535" />
    </linearGradient>
    <linearGradient
       inkscape:collect="always"
       id="linearGradient20160">
      <stop
         style="stop-color:#7015c3;stop-opacity:1;"
         offset="0"
         id="stop20156" />
      <stop
         style="stop-color:#8326d5;stop-opacity:0.62352941;"
         offset="0.5"
         id="stop20164" />
      <stop
         style="stop-color:#4dd3f5;stop-opacity:0.7740404;"
         offset="1"
         id="stop20158" />
    </linearGradient>
    <linearGradient
       inkscape:collect="always"
       xlink:href="#linearGradient11"
       id="linearGradient3"
       gradientUnits="userSpaceOnUse"
       gradientTransform="matrix(0.99725216,0.100325,-0.11313838,0.97519557,-73.330118,-39.634609)"
       x1="92.058594"
       y1="52.182617"
       x2="106.61719"
       y2="52.182617" />
    <linearGradient
       inkscape:collect="always"
       xlink:href="#linearGradient4"
       id="linearGradient5"
       x1="25.305641"
       y1="62.125225"
       x2="56.719852"
       y2="62.125225"
       gradientUnits="userSpaceOnUse"
       gradientTransform="translate(-25.305645,-46.462309)" />
    <linearGradient
       inkscape:collect="always"
       xlink:href="#linearGradient20160"
       id="linearGradient2-2"
       gradientUnits="userSpaceOnUse"
       gradientTransform="matrix(0.7940453,0,0,0.8434722,-69.009313,-3.3584205)"
       x1="87.796227"
       y1="29.440647"
       x2="125.57745"
       y2="29.440647" />
    <linearGradient
       inkscape:collect="always"
       xlink:href="#linearGradient20537"
       id="linearGradient9"
       gradientUnits="userSpaceOnUse"
       gradientTransform="matrix(0.99725216,0.100325,-0.11313838,0.97519557,-81.330118,-49.759609)"
       x1="92.058594"
       y1="52.182617"
       x2="106.61719"
       y2="52.182617" />
  </defs>
  <sodipodi:namedview
     id="namedview2635"
     pagecolor="#505050"
     bordercolor="#ffffff"
     borderopacity="1"
     inkscape:showpageshadow="0"
     inkscape:pageopacity="0"
     inkscape:pagecheckerboard="1"
     inkscape:deskcolor="#505050"
     showgrid="false"
     inkscape:zoom="4"
     inkscape:cx="23.875"
     inkscape:cy="94"
     inkscape:window-width="1920"
     inkscape:window-height="1042"
     inkscape:window-x="0"
     inkscape:window-y="0"
     inkscape:window-maximized="1"
     inkscape:current-layer="svg2633"
     showguides="false"
     inkscape:export-bgcolor="#00000000">
    <inkscape:page
       x="0"
       y="0"
       width="31.414215"
       height="31.325825"
       id="page2"
       margin="0"
       bleed="0" />
  </sodipodi:namedview>
  <linearGradient
     id="a"
     gradientUnits="userSpaceOnUse"
     x1="8.0000153"
     x2="120.00002"
     y1="115.99998"
     y2="115.99998"
     gradientTransform="matrix(0.34470626,0,0,0.34559191,86.495492,2.0351292)">
    <stop
       offset="0"
       stop-color="#1a5fb4"
       id="stop2592" />
    <stop
       offset="0.0334554"
       stop-color="#3584e4"
       id="stop2594" />
    <stop
       offset="0.0713653"
       stop-color="#1a5fb4"
       id="stop2596" />
    <stop
       offset="0.928571"
       stop-color="#1a5fb4"
       id="stop2598" />
    <stop
       offset="0.964286"
       stop-color="#3584e4"
       id="stop2600" />
    <stop
       offset="1"
       stop-color="#1a5fb4"
       id="stop2602" />
  </linearGradient>
  <rect
     style="fill:url(#linearGradient5);stroke-width:1;stroke-dasharray:none"
     id="rect2751-2-5-2"
     width="31.414213"
     height="31.325827"
     x="-2.5225845e-07"
     y="6.8041295e-08"
     rx="4"
     ry="4" />
  <rect
     style="fill:#1b082e;fill-opacity:1;stroke-width:1;stroke-dasharray:none;paint-order:markers fill stroke"
     id="rect2751-2"
     width="30"
     height="30"
     x="0.70593238"
     y="0.65722662"
     rx="60"
     ry="60" />
  <path
     id="rect2751-3-9-0-9"
     style="fill:url(#linearGradient2-2);fill-opacity:1;stroke-width:1;stroke-dasharray:none"
     d="m 30.330714,12.286457 c -8.25699,0.0019 -12.75487,0.121373 -17.28321,6.753906 -2.52279,3.694703 -5.3145719,5.381012 -8.9472629,6.142578 2.74658,3.348736 6.9207529,5.478516 11.6093729,5.478516 8.19387,0 14.8127,-6.5041 14.9961,-14.652344 V 15.3138 c -0.0234,-1.039283 -0.15231,-2.051632 -0.375,-3.027343 z" />
  <path
     id="path20336-1-6"
     style="fill:url(#linearGradient3);fill-opacity:1;stroke-width:1;stroke-dasharray:none"
     d="m 24.828324,14.135259 a 3.075395,3.1555072 78.011505 0 0 -3.48731,2.74764 3.075395,3.1555072 78.011505 0 0 0.44498,1.938936 3.075395,3.1555072 78.011505 0 0 -1.61247,-0.640091 3.075395,3.1555072 78.011505 0 0 -3.48733,2.74764 3.075395,3.1555072 78.011505 0 0 0.37926,1.826324 3.075395,3.1555072 78.011505 0 0 -1.52128,-0.576964 3.075395,3.1555072 78.011505 0 0 -3.48731,2.747641 3.075395,3.1555072 78.011505 0 0 2.77666,3.377806 3.075395,3.1555072 78.011505 0 0 3.48733,-2.74764 3.075395,3.1555072 78.011505 0 0 -0.37732,-1.826128 3.075395,3.1555072 78.011505 0 0 1.51933,0.576769 3.075395,3.1555072 78.011505 0 0 3.48732,-2.747641 3.075395,3.1555072 78.011505 0 0 -0.44499,-1.938937 3.075395,3.1555072 78.011505 0 0 1.61247,0.640095 3.075395,3.1555072 78.011505 0 0 3.48733,-2.747642 3.075395,3.1555072 78.011505 0 0 -2.77667,-3.377808 z m -0.18407,1.586606 a 1.4822813,1.5208939 78.011504 0 1 0.10864,0.01481 1.4822813,1.5208939 78.011504 0 1 0.1058,0.02216 1.4822813,1.5208939 78.011504 0 1 0.10319,0.02774 1.4822813,1.5208939 78.011504 0 1 0.10209,0.03719 1.4822813,1.5208939 78.011504 0 1 0.0973,0.04452 1.4822813,1.5208939 78.011504 0 1 0.0947,0.05 1.4822813,1.5208939 78.011504 0 1 0.0919,0.05746 1.4822813,1.5208939 78.011504 0 1 0.0854,0.06259 1.4822813,1.5208939 78.011504 0 1 0.0828,0.06807 1.4822813,1.5208939 78.011504 0 1 0.076,0.07508 1.4822813,1.5208939 78.011504 0 1 0.0695,0.08022 1.4822813,1.5208939 78.011504 0 1 0.0652,0.0836 1.4822813,1.5208939 78.011504 0 1 0.0587,0.08873 1.4822813,1.5208939 78.011504 0 1 0.0503,0.09364 1.4822813,1.5208939 78.011504 0 1 0.0461,0.09514 1.4822813,1.5208939 78.011504 0 1 0.0357,0.09993 1.4822813,1.5208939 78.011504 0 1 0.0316,0.101459 1.4822813,1.5208939 78.011504 0 1 0.0216,0.102379 1.4822813,1.5208939 78.011504 0 1 0.0153,0.105586 1.4822813,1.5208939 78.011504 0 1 0.008,0.104807 1.4822813,1.5208939 78.011504 0 1 -0.002,0.105771 1.4822813,1.5208939 78.011504 0 1 -0.008,0.107066 1.4822813,1.5208939 78.011504 0 1 -0.0606,0.284859 1.4822813,1.5208939 78.011504 0 1 -0.1197,0.267361 1.4822813,1.5208939 78.011504 0 1 -0.1679,0.241322 1.4822813,1.5208939 78.011504 0 1 -0.21501,0.205741 1.4822813,1.5208939 78.011504 0 1 -0.2491,0.159921 1.4822813,1.5208939 78.011504 0 1 -0.27691,0.110891 1.4822813,1.5208939 78.011504 0 1 -0.29215,0.05541 1.4822813,1.5208939 78.011504 0 1 -0.29938,-0.0012 1.4822813,1.5208939 78.011504 0 1 -0.29079,-0.05819 1.4822813,1.5208939 78.011504 0 1 -0.2727,-0.112226 1.4822813,1.5208939 78.011504 0 1 -0.24509,-0.163389 1.4822813,1.5208939 78.011504 0 1 -0.20862,-0.205969 1.4822813,1.5208939 78.011504 0 1 -0.16091,-0.243564 1.4822813,1.5208939 78.011504 0 1 -0.11064,-0.269333 1.4822813,1.5208939 78.011504 0 1 -0.0536,-0.284806 1.4822813,1.5208939 78.011504 0 1 0.004,-0.290545 1.4822813,1.5208939 78.011504 0 1 0.0626,-0.284666 1.4822813,1.5208939 78.011504 0 1 0.11793,-0.269466 1.4822813,1.5208939 78.011504 0 1 0.16985,-0.241125 1.4822813,1.5208939 78.011504 0 1 0.21284,-0.204036 1.4822813,1.5208939 78.011504 0 1 0.25127,-0.161633 1.4822813,1.5208939 78.011504 0 1 0.27667,-0.109022 1.4822813,1.5208939 78.011504 0 1 0.29215,-0.05541 1.4822813,1.5208939 78.011504 0 1 0.29742,9.76e-4 z m -4.65477,4.046466 a 1.4822813,1.5208939 78.011504 0 1 0.10863,0.0148 1.4822813,1.5208939 78.011504 0 1 0.10581,0.02216 1.4822813,1.5208939 78.011504 0 1 0.10318,0.02774 1.4822813,1.5208939 78.011504 0 1 0.10208,0.03719 1.4822813,1.5208939 78.011504 0 1 0.0973,0.04452 1.4822813,1.5208939 78.011504 0 1 0.0947,0.05 1.4822813,1.5208939 78.011504 0 1 0.0919,0.05746 1.4822813,1.5208939 78.011504 0 1 0.0854,0.06259 1.4822813,1.5208939 78.011504 0 1 0.0827,0.06807 1.4822813,1.5208939 78.011504 0 1 0.076,0.07508 1.4822813,1.5208939 78.011504 0 1 0.0695,0.08022 1.4822813,1.5208939 78.011504 0 1 0.0652,0.0836 1.4822813,1.5208939 78.011504 0 1 0.0587,0.08873 1.4822813,1.5208939 78.011504 0 1 0.0502,0.09365 1.4822813,1.5208939 78.011504 0 1 0.0461,0.09514 1.4822813,1.5208939 78.011504 0 1 0.0357,0.09993 1.4822813,1.5208939 78.011504 0 1 0.0316,0.101458 1.4822813,1.5208939 78.011504 0 1 0.0216,0.102389 1.4822813,1.5208939 78.011504 0 1 0.0153,0.105578 1.4822813,1.5208939 78.011504 0 1 0.008,0.104818 1.4822813,1.5208939 78.011504 0 1 -0.002,0.10576 1.4822813,1.5208939 78.011504 0 1 -0.008,0.107062 1.4822813,1.5208939 78.011504 0 1 -0.0606,0.284869 1.4822813,1.5208939 78.011504 0 1 -0.1197,0.267352 1.4822813,1.5208939 78.011504 0 1 -0.1679,0.241321 1.4822813,1.5208939 78.011504 0 1 -0.215,0.205739 1.4822813,1.5208939 78.011504 0 1 -0.24911,0.159922 1.4822813,1.5208939 78.011504 0 1 -0.2769,0.110889 1.4822813,1.5208939 78.011504 0 1 -0.29215,0.05541 1.4822813,1.5208939 78.011504 0 1 -0.29937,-0.0012 1.4822813,1.5208939 78.011504 0 1 -0.2908,-0.05818 1.4822813,1.5208939 78.011504 0 1 -0.27271,-0.112217 1.4822813,1.5208939 78.011504 0 1 -0.24509,-0.163399 1.4822813,1.5208939 78.011504 0 1 -0.20862,-0.205968 1.4822813,1.5208939 78.011504 0 1 -0.16091,-0.243563 1.4822813,1.5208939 78.011504 0 1 -0.11063,-0.269331 1.4822813,1.5208939 78.011504 0 1 -0.0517,-0.284601 1.4822813,1.5208939 78.011504 0 1 0.004,-0.290555 1.4822813,1.5208939 78.011504 0 1 0.0626,-0.284664 1.4822813,1.5208939 78.011504 0 1 0.11603,-0.269655 1.4822813,1.5208939 78.011504 0 1 0.16984,-0.241115 1.4822813,1.5208939 78.011504 0 1 0.21284,-0.204036 1.4822813,1.5208939 78.011504 0 1 0.25127,-0.161642 1.4822813,1.5208939 78.011504 0 1 0.27667,-0.109013 1.4822813,1.5208939 78.011504 0 1 0.29216,-0.05541 1.4822813,1.5208939 78.011504 0 1 0.29742,9.75e-4 z m -4.62934,3.997 a 1.4822813,1.5208939 78.011504 0 1 0.10864,0.01481 1.4822813,1.5208939 78.011504 0 1 0.1058,0.02216 1.4822813,1.5208939 78.011504 0 1 0.10319,0.02774 1.4822813,1.5208939 78.011504 0 1 0.10209,0.03719 1.4822813,1.5208939 78.011504 0 1 0.0973,0.04452 1.4822813,1.5208939 78.011504 0 1 0.0947,0.05 1.4822813,1.5208939 78.011504 0 1 0.0919,0.05746 1.4822813,1.5208939 78.011504 0 1 0.0854,0.06249 1.4822813,1.5208939 78.011504 0 1 0.0827,0.06807 1.4822813,1.5208939 78.011504 0 1 0.076,0.07508 1.4822813,1.5208939 78.011504 0 1 0.0695,0.08022 1.4822813,1.5208939 78.011504 0 1 0.0652,0.0836 1.4822813,1.5208939 78.011504 0 1 0.0587,0.08873 1.4822813,1.5208939 78.011504 0 1 0.0502,0.09365 1.4822813,1.5208939 78.011504 0 1 0.0461,0.09514 1.4822813,1.5208939 78.011504 0 1 0.0357,0.09993 1.4822813,1.5208939 78.011504 0 1 0.0316,0.101459 1.4822813,1.5208939 78.011504 0 1 0.0216,0.10238 1.4822813,1.5208939 78.011504 0 1 0.0153,0.105587 1.4822813,1.5208939 78.011504 0 1 0.008,0.104806 1.4822813,1.5208939 78.011504 0 1 -0.002,0.105771 1.4822813,1.5208939 78.011504 0 1 -0.008,0.107069 1.4822813,1.5208939 78.011504 0 1 -0.0606,0.284859 1.4822813,1.5208939 78.011504 0 1 -0.1197,0.267361 1.4822813,1.5208939 78.011504 0 1 -0.1679,0.241321 1.4822813,1.5208939 78.011504 0 1 -0.21502,0.205741 1.4822813,1.5208939 78.011504 0 1 -0.24909,0.159917 1.4822813,1.5208939 78.011504 0 1 -0.27691,0.110892 1.4822813,1.5208939 78.011504 0 1 -0.29215,0.05541 1.4822813,1.5208939 78.011504 0 1 -0.29938,-0.0012 1.4822813,1.5208939 78.011504 0 1 -0.29079,-0.05818 1.4822813,1.5208939 78.011504 0 1 -0.2727,-0.112227 1.4822813,1.5208939 78.011504 0 1 -0.24509,-0.163389 1.4822813,1.5208939 78.011504 0 1 -0.20863,-0.205969 1.4822813,1.5208939 78.011504 0 1 -0.16091,-0.243565 1.4822813,1.5208939 78.011504 0 1 -0.11063,-0.269332 1.4822813,1.5208939 78.011504 0 1 -0.0536,-0.284807 1.4822813,1.5208939 78.011504 0 1 0.004,-0.290546 1.4822813,1.5208939 78.011504 0 1 0.0626,-0.284664 1.4822813,1.5208939 78.011504 0 1 0.11793,-0.269466 1.4822813,1.5208939 78.011504 0 1 0.16985,-0.241117 1.4822813,1.5208939 78.011504 0 1 0.21284,-0.204036 1.4822813,1.5208939 78.011504 0 1 0.25127,-0.161641 1.4822813,1.5208939 78.011504 0 1 0.27667,-0.109023 1.4822813,1.5208939 78.011504 0 1 0.29214,-0.05541 1.4822813,1.5208939 78.011504 0 1 0.29743,9.76e-4 z" />
  <path
     id="path20336-1-6-4"
     style="fill:url(#linearGradient9);fill-opacity:1;stroke-width:1;stroke-dasharray:none"
     d="m 16.828324,4.0102593 a 3.075395,3.1555072 78.011505 0 0 -3.48731,2.74764 3.075395,3.1555072 78.011505 0 0 0.44498,1.938936 3.075395,3.1555072 78.011505 0 0 -1.61247,-0.640091 3.075395,3.1555072 78.011505 0 0 -3.4873299,2.7476397 3.075395,3.1555072 78.011505 0 0 0.37926,1.826324 3.075395,3.1555072 78.011505 0 0 -1.52128,-0.576964 3.075395,3.1555072 78.011505 0 0 -3.487307,2.747641 3.075395,3.1555072 78.011505 0 0 2.776657,3.377806 3.075395,3.1555072 78.011505 0 0 3.4873299,-2.74764 3.075395,3.1555072 78.011505 0 0 -0.3773199,-1.826128 3.075395,3.1555072 78.011505 0 0 1.5193299,0.576769 3.075395,3.1555072 78.011505 0 0 3.48732,-2.747641 3.075395,3.1555072 78.011505 0 0 -0.44499,-1.9389367 3.075395,3.1555072 78.011505 0 0 1.61247,0.6400947 3.075395,3.1555072 78.011505 0 0 3.48733,-2.7476417 3.075395,3.1555072 78.011505 0 0 -2.77667,-3.377808 z m -0.18407,1.586606 a 1.4822813,1.5208939 78.011504 0 1 0.10864,0.01481 1.4822813,1.5208939 78.011504 0 1 0.1058,0.02216 1.4822813,1.5208939 78.011504 0 1 0.10319,0.02774 1.4822813,1.5208939 78.011504 0 1 0.10209,0.03719 1.4822813,1.5208939 78.011504 0 1 0.0973,0.04452 1.4822813,1.5208939 78.011504 0 1 0.0947,0.05 1.4822813,1.5208939 78.011504 0 1 0.0919,0.05746 1.4822813,1.5208939 78.011504 0 1 0.0854,0.06259 1.4822813,1.5208939 78.011504 0 1 0.0828,0.06807 1.4822813,1.5208939 78.011504 0 1 0.076,0.07508 1.4822813,1.5208939 78.011504 0 1 0.0695,0.08022 1.4822813,1.5208939 78.011504 0 1 0.0652,0.0836 1.4822813,1.5208939 78.011504 0 1 0.0587,0.08873 1.4822813,1.5208939 78.011504 0 1 0.0503,0.09364 1.4822813,1.5208939 78.011504 0 1 0.0461,0.09514 1.4822813,1.5208939 78.011504 0 1 0.0357,0.09993 1.4822813,1.5208939 78.011504 0 1 0.0316,0.101459 1.4822813,1.5208939 78.011504 0 1 0.0216,0.102379 1.4822813,1.5208939 78.011504 0 1 0.0153,0.105586 1.4822813,1.5208939 78.011504 0 1 0.008,0.104807 1.4822813,1.5208939 78.011504 0 1 -0.002,0.105771 1.4822813,1.5208939 78.011504 0 1 -0.008,0.107066 1.4822813,1.5208939 78.011504 0 1 -0.0606,0.284859 1.4822813,1.5208939 78.011504 0 1 -0.1197,0.267361 1.4822813,1.5208939 78.011504 0 1 -0.1679,0.241322 1.4822813,1.5208939 78.011504 0 1 -0.21501,0.205741 1.4822813,1.5208939 78.011504 0 1 -0.2491,0.159921 1.4822813,1.5208939 78.011504 0 1 -0.27691,0.110891 1.4822813,1.5208939 78.011504 0 1 -0.29215,0.05541 1.4822813,1.5208939 78.011504 0 1 -0.29938,-0.0012 1.4822813,1.5208939 78.011504 0 1 -0.29079,-0.05819 1.4822813,1.5208939 78.011504 0 1 -0.2727,-0.112226 1.4822813,1.5208939 78.011504 0 1 -0.24509,-0.163389 1.4822813,1.5208939 78.011504 0 1 -0.20862,-0.205969 1.4822813,1.5208939 78.011504 0 1 -0.16091,-0.243564 1.4822813,1.5208939 78.011504 0 1 -0.11064,-0.269333 1.4822813,1.5208939 78.011504 0 1 -0.0536,-0.284806 1.4822813,1.5208939 78.011504 0 1 0.004,-0.290545 1.4822813,1.5208939 78.011504 0 1 0.0626,-0.284666 1.4822813,1.5208939 78.011504 0 1 0.11793,-0.269466 1.4822813,1.5208939 78.011504 0 1 0.16985,-0.241125 1.4822813,1.5208939 78.011504 0 1 0.21284,-0.204036 1.4822813,1.5208939 78.011504 0 1 0.25127,-0.161633 1.4822813,1.5208939 78.011504 0 1 0.27667,-0.109022 1.4822813,1.5208939 78.011504 0 1 0.29215,-0.05541 1.4822813,1.5208939 78.011504 0 1 0.29742,9.76e-4 z m -4.65477,4.046466 a 1.4822813,1.5208939 78.011504 0 1 0.10863,0.0148 1.4822813,1.5208939 78.011504 0 1 0.10581,0.02216 1.4822813,1.5208939 78.011504 0 1 0.10318,0.02774 1.4822813,1.5208939 78.011504 0 1 0.10208,0.03719 1.4822813,1.5208939 78.011504 0 1 0.0973,0.04452 1.4822813,1.5208939 78.011504 0 1 0.0947,0.05 1.4822813,1.5208939 78.011504 0 1 0.0919,0.05746 1.4822813,1.5208939 78.011504 0 1 0.0854,0.06259 1.4822813,1.5208939 78.011504 0 1 0.0827,0.06807 1.4822813,1.5208939 78.011504 0 1 0.076,0.07508 1.4822813,1.5208939 78.011504 0 1 0.0695,0.08022 1.4822813,1.5208939 78.011504 0 1 0.0652,0.0836 1.4822813,1.5208939 78.011504 0 1 0.0587,0.08873 1.4822813,1.5208939 78.011504 0 1 0.0502,0.09365 1.4822813,1.5208939 78.011504 0 1 0.0461,0.09514 1.4822813,1.5208939 78.011504 0 1 0.0357,0.09993 1.4822813,1.5208939 78.011504 0 1 0.0316,0.101458 1.4822813,1.5208939 78.011504 0 1 0.0216,0.102389 1.4822813,1.5208939 78.011504 0 1 0.0153,0.105578 1.4822813,1.5208939 78.011504 0 1 0.008,0.104818 1.4822813,1.5208939 78.011504 0 1 -0.002,0.10576 1.4822813,1.5208939 78.011504 0 1 -0.008,0.107062 1.4822813,1.5208939 78.011504 0 1 -0.0606,0.284869 1.4822813,1.5208939 78.011504 0 1 -0.1197,0.267352 1.4822813,1.5208939 78.011504 0 1 -0.1679,0.241321 1.4822813,1.5208939 78.011504 0 1 -0.215,0.205739 1.4822813,1.5208939 78.011504 0 1 -0.24911,0.159922 1.4822813,1.5208939 78.011504 0 1 -0.2769,0.110889 1.4822813,1.5208939 78.011504 0 1 -0.29215,0.05541 1.4822813,1.5208939 78.011504 0 1 -0.29937,-0.0012 1.4822813,1.5208939 78.011504 0 1 -0.2908,-0.05818 1.4822813,1.5208939 78.011504 0 1 -0.27271,-0.112217 1.4822813,1.5208939 78.011504 0 1 -0.24509,-0.163399 1.4822813,1.5208939 78.011504 0 1 -0.20862,-0.205968 1.4822813,1.5208939 78.011504 0 1 -0.16091,-0.243563 1.4822813,1.5208939 78.011504 0 1 -0.11063,-0.269331 1.4822813,1.5208939 78.011504 0 1 -0.0517,-0.284601 1.4822813,1.5208939 78.011504 0 1 0.004,-0.290555 1.4822813,1.5208939 78.011504 0 1 0.0626,-0.284664 1.4822813,1.5208939 78.011504 0 1 0.11603,-0.269655 1.4822813,1.5208939 78.011504 0 1 0.16984,-0.241115 1.4822813,1.5208939 78.011504 0 1 0.21284,-0.2040353 1.4822813,1.5208939 78.011504 0 1 0.25127,-0.161642 1.4822813,1.5208939 78.011504 0 1 0.27667,-0.109013 1.4822813,1.5208939 78.011504 0 1 0.29216,-0.05541 1.4822813,1.5208939 78.011504 0 1 0.29742,9.75e-4 z M 7.3601441,13.640331 a 1.4822813,1.5208939 78.011504 0 1 0.10864,0.01481 1.4822813,1.5208939 78.011504 0 1 0.1058,0.02216 1.4822813,1.5208939 78.011504 0 1 0.10319,0.02774 1.4822813,1.5208939 78.011504 0 1 0.10209,0.03719 1.4822813,1.5208939 78.011504 0 1 0.0973,0.04452 1.4822813,1.5208939 78.011504 0 1 0.0947,0.05 1.4822813,1.5208939 78.011504 0 1 0.0919,0.05746 1.4822813,1.5208939 78.011504 0 1 0.0854,0.06249 1.4822813,1.5208939 78.011504 0 1 0.0827,0.06807 1.4822813,1.5208939 78.011504 0 1 0.076,0.07508 1.4822813,1.5208939 78.011504 0 1 0.0695,0.08022 1.4822813,1.5208939 78.011504 0 1 0.0652,0.0836 1.4822813,1.5208939 78.011504 0 1 0.0587,0.08873 1.4822813,1.5208939 78.011504 0 1 0.0502,0.09365 1.4822813,1.5208939 78.011504 0 1 0.0461,0.09514 1.4822813,1.5208939 78.011504 0 1 0.0357,0.09993 1.4822813,1.5208939 78.011504 0 1 0.0316,0.101459 1.4822813,1.5208939 78.011504 0 1 0.0216,0.10238 1.4822813,1.5208939 78.011504 0 1 0.0153,0.105587 1.4822813,1.5208939 78.011504 0 1 0.008,0.104806 1.4822813,1.5208939 78.011504 0 1 -0.002,0.105771 1.4822813,1.5208939 78.011504 0 1 -0.008,0.107069 1.4822813,1.5208939 78.011504 0 1 -0.0606,0.284859 1.4822813,1.5208939 78.011504 0 1 -0.1197,0.267361 1.4822813,1.5208939 78.011504 0 1 -0.1679,0.241321 1.4822813,1.5208939 78.011504 0 1 -0.21502,0.205741 1.4822813,1.5208939 78.011504 0 1 -0.24909,0.159917 1.4822813,1.5208939 78.011504 0 1 -0.27691,0.110892 1.4822813,1.5208939 78.011504 0 1 -0.29215,0.05541 1.4822813,1.5208939 78.011504 0 1 -0.29938,-0.0012 1.4822813,1.5208939 78.011504 0 1 -0.29079,-0.05818 1.4822813,1.5208939 78.011504 0 1 -0.2727,-0.112227 1.4822813,1.5208939 78.011504 0 1 -0.24509,-0.163389 1.4822813,1.5208939 78.011504 0 1 -0.20863,-0.205969 1.4822813,1.5208939 78.011504 0 1 -0.160907,-0.243565 1.4822813,1.5208939 78.011504 0 1 -0.11063,-0.269332 1.4822813,1.5208939 78.011504 0 1 -0.0536,-0.284807 1.4822813,1.5208939 78.011504 0 1 0.004,-0.290546 1.4822813,1.5208939 78.011504 0 1 0.0626,-0.284664 1.4822813,1.5208939 78.011504 0 1 0.11793,-0.269466 1.4822813,1.5208939 78.011504 0 1 0.169847,-0.241117 1.4822813,1.5208939 78.011504 0 1 0.21284,-0.204036 1.4822813,1.5208939 78.011504 0 1 0.25127,-0.161641 1.4822813,1.5208939 78.011504 0 1 0.27667,-0.109023 1.4822813,1.5208939 78.011504 0 1 0.29214,-0.05541 1.4822813,1.5208939 78.011504 0 1 0.29743,9.76e-4 z" />
</svg>
